<svg width="89" height="84" viewBox="0 0 89 84" fill="none" xmlns="http://www.w3.org/2000/svg">
<g opacity="0.1">
<path d="M4.9135 10.1499C5.05642 10.1503 5.19802 10.1226 5.33018 10.0683C5.46234 10.014 5.58247 9.93419 5.68367 9.83348C5.78488 9.73277 5.86517 9.61312 5.91996 9.48139C5.97475 9.34966 6.00295 9.20843 6.00295 9.0658C5.98436 8.22219 6.13481 7.38336 6.44548 6.59856C6.75614 5.81375 7.22076 5.09878 7.81206 4.49558C8.40337 3.89239 9.10945 3.41313 9.88887 3.08594C10.6683 2.75874 11.5054 2.5902 12.3509 2.5902C13.1965 2.5902 14.0336 2.75874 14.813 3.08594C15.5924 3.41313 16.2985 3.89239 16.8898 4.49558C17.4811 5.09878 17.9457 5.81375 18.2564 6.59856C18.567 7.38336 18.7175 8.22219 18.6989 9.0658V57.1532C18.6911 57.3006 18.7134 57.4481 18.7645 57.5866C18.8156 57.7251 18.8945 57.8518 18.9963 57.9589C19.0981 58.0661 19.2207 58.1514 19.3566 58.2097C19.4925 58.268 19.6389 58.298 19.7868 58.298C19.9348 58.298 20.0811 58.268 20.2171 58.2097C20.353 58.1514 20.4756 58.0661 20.5774 57.9589C20.6792 57.8518 20.758 57.7251 20.8091 57.5866C20.8603 57.4481 20.8826 57.3006 20.8747 57.1532V48.0208H54.3225V57.1532C54.3146 57.3006 54.3369 57.4481 54.3881 57.5866C54.4392 57.7251 54.5181 57.8518 54.6199 57.9589C54.7216 58.0661 54.8442 58.1514 54.9801 58.2097C55.1161 58.268 55.2625 58.298 55.4104 58.298C55.5583 58.298 55.7047 58.268 55.8406 58.2097C55.9765 58.1514 56.0991 58.0661 56.2009 57.9589C56.3027 57.8518 56.3816 57.7251 56.4327 57.5866C56.4838 57.4481 56.5062 57.3006 56.4983 57.1532V9.05355C56.4983 6.79719 55.6001 4.63324 54.0013 3.03775C52.4025 1.44226 50.234 0.545929 47.973 0.545929C45.7119 0.545929 43.5434 1.44226 41.9446 3.03775C40.3458 4.63324 39.4476 6.79719 39.4476 9.05355C39.4624 9.33152 39.5835 9.59323 39.7859 9.78476C39.9883 9.97629 40.2566 10.0831 40.5355 10.0831C40.8145 10.0831 41.0828 9.97629 41.2852 9.78476C41.4876 9.59323 41.6086 9.33152 41.6234 9.05355C41.6234 8.22146 41.7877 7.39751 42.1068 6.62875C42.4259 5.85999 42.8936 5.16148 43.4832 4.5731C44.0728 3.98472 44.7727 3.51799 45.5431 3.19956C46.3135 2.88113 47.1391 2.71724 47.973 2.71724C48.8068 2.71724 49.6325 2.88113 50.4028 3.19956C51.1732 3.51799 51.8731 3.98472 52.4627 4.5731C53.0523 5.16148 53.52 5.85999 53.8391 6.62875C54.1582 7.39751 54.3225 8.22146 54.3225 9.05355V28.3075H20.8717V9.05355C20.8932 7.92294 20.6886 6.79939 20.2699 5.74859C19.8512 4.6978 19.2267 3.74085 18.4331 2.93369C17.6395 2.12653 16.6925 1.48535 15.6477 1.04766C14.6028 0.60996 13.481 0.384521 12.3479 0.384521C11.2147 0.384521 10.0929 0.60996 9.04803 1.04766C8.00318 1.48535 7.05625 2.12653 6.26261 2.93369C5.46897 3.74085 4.84454 4.6978 4.42584 5.74859C4.00713 6.79939 3.80255 7.92294 3.82404 9.05355C3.822 9.19732 3.84872 9.34005 3.90263 9.47339C3.95654 9.60673 4.03656 9.72799 4.13801 9.83009C4.23947 9.93218 4.36031 10.0131 4.49346 10.068C4.62662 10.1229 4.76942 10.1508 4.9135 10.1499ZM20.8717 30.4911H54.3225V45.8617H20.8717V30.4911Z" fill="#AA8453"/>
<path d="M1.84488 70.8488C4.07267 70.7936 6.2472 70.1576 8.15247 69.0042C10.0577 67.8507 11.6274 66.2199 12.7057 64.2737C13.8022 66.2189 15.3854 67.8472 17.3007 68.9996C19.2161 70.152 21.3982 70.7892 23.6339 70.8488C25.7764 70.807 27.8727 70.2206 29.7248 69.1451C31.5768 68.0696 33.1235 66.5405 34.2185 64.7024C35.3313 66.5395 36.8913 68.0662 38.7535 69.1408C40.6158 70.2153 42.7199 70.8029 44.8706 70.8488C47.0806 70.7953 49.2385 70.1685 51.1321 69.0301C53.0256 67.8917 54.5896 66.2809 55.67 64.3563C56.7681 66.2804 58.3454 67.889 60.2492 69.0265C62.153 70.1639 64.3187 70.7916 66.5369 70.8488C68.6797 70.8087 70.7767 70.223 72.629 69.1473C74.4814 68.0717 76.0278 66.5417 77.1214 64.7024C78.2347 66.5391 79.7948 68.0655 81.6569 69.14C83.5191 70.2145 85.623 70.8023 87.7735 70.8488C88.0521 70.8341 88.3143 70.7132 88.5063 70.5113C88.6982 70.3093 88.8052 70.0415 88.8052 69.7632C88.8052 69.4848 88.6982 69.2171 88.5063 69.0151C88.3143 68.8131 88.0521 68.6923 87.7735 68.6775C85.7095 68.5615 83.717 67.8825 82.013 66.7145C80.309 65.5464 78.9589 63.9342 78.1096 62.0533C78.0812 62.0045 78.0483 61.9584 78.0114 61.9155C77.9735 61.8475 77.9283 61.7838 77.8764 61.7256C77.8163 61.6726 77.7504 61.6263 77.68 61.5878C77.6309 61.5603 77.5941 61.5174 77.5419 61.4929H77.5204C77.471 61.4788 77.4208 61.4675 77.37 61.4592C77.1448 61.3966 76.9051 61.4106 76.6887 61.499H76.6734C76.6335 61.5174 76.6089 61.5511 76.5691 61.5725C76.4872 61.6175 76.4109 61.672 76.3419 61.7348C76.2918 61.7918 76.2485 61.8545 76.2131 61.9216C76.1758 61.9664 76.143 62.0146 76.1149 62.0656C75.2734 63.9338 73.9365 65.5372 72.2485 66.7025C70.5604 67.8677 68.5855 68.5507 66.5369 68.6775C64.4729 68.5615 62.4804 67.8825 60.7764 66.7145C59.0724 65.5464 57.7222 63.9342 56.873 62.0533C56.7322 61.8645 56.5491 61.7112 56.3384 61.6056C56.1276 61.4999 55.8951 61.4449 55.6592 61.4449C55.4234 61.4449 55.1908 61.4999 54.9801 61.6056C54.7694 61.7112 54.5863 61.8645 54.4455 62.0533C53.6051 63.9217 52.2689 65.5253 50.5813 66.6907C48.8937 67.8561 46.9189 68.5389 44.8706 68.6653C42.8062 68.5494 40.8131 67.8706 39.1086 66.7025C37.4041 65.5345 36.0534 63.9222 35.2036 62.0411C35.1762 61.9916 35.1433 61.9454 35.1054 61.9033C35.0689 61.8335 35.0235 61.7686 34.9704 61.7103C34.9094 61.6592 34.8437 61.614 34.774 61.5756C34.7299 61.5412 34.6838 61.5095 34.6359 61.4806H34.6175C34.5642 61.465 34.5098 61.4538 34.4548 61.447C34.2313 61.3853 33.9935 61.4004 33.7797 61.4898C33.749 61.4898 33.7305 61.5296 33.7029 61.545C33.608 61.5913 33.521 61.6523 33.4451 61.7256C33.398 61.7797 33.3578 61.8393 33.3255 61.9033C33.2835 61.9497 33.2474 62.0012 33.218 62.0564C32.3783 63.9278 31.0412 65.5342 29.3517 66.7014C27.6622 67.8685 25.6849 68.5519 23.6339 68.6775C21.5696 68.5614 19.5767 67.8823 17.8722 66.7144C16.1678 65.5464 14.817 63.9342 13.967 62.0533C13.8614 61.8213 13.6765 61.6343 13.4454 61.526C13.2142 61.4177 12.952 61.3951 12.7057 61.4623C12.4538 61.3901 12.1841 61.4125 11.9477 61.5254C11.7113 61.6383 11.5246 61.8337 11.4229 62.0748C10.5801 63.9413 9.24261 65.5427 7.55469 66.7063C5.86677 67.8699 3.8925 68.5515 1.84488 68.6775C1.56634 68.6923 1.30409 68.8131 1.11215 69.0151C0.920221 69.2171 0.813232 69.4848 0.813232 69.7632C0.813232 70.0415 0.920221 70.3093 1.11215 70.5113C1.30409 70.7132 1.56634 70.8341 1.84488 70.8488Z" fill="#AA8453"/>
<path d="M87.7735 81.2828C85.7095 81.1667 83.717 80.4877 82.013 79.3197C80.309 78.1517 78.9589 76.5394 78.1096 74.6586C78.0298 74.5508 77.952 74.4416 77.8764 74.3309C77.817 74.2815 77.7533 74.2375 77.6861 74.1992C77.6405 74.1621 77.5923 74.1283 77.5419 74.0982H77.5204C77.4639 74.0827 77.4065 74.0704 77.3485 74.0614C77.2676 74.0372 77.1842 74.0218 77.1 74.0155H77.0754C76.9425 74.0193 76.8115 74.0473 76.6887 74.0982H76.6734C76.6404 74.1199 76.6087 74.1434 76.5783 74.1686C76.4918 74.2119 76.4122 74.2676 76.3419 74.334C76.2927 74.3899 76.2505 74.4516 76.2161 74.5177C76.1772 74.563 76.1432 74.6122 76.1149 74.6647C75.2734 76.533 73.9365 78.1363 72.2485 79.3016C70.5604 80.4669 68.5855 81.1498 66.5369 81.2767C64.4729 81.1606 62.4804 80.4816 60.7764 79.3136C59.0724 78.1456 57.7222 76.5333 56.873 74.6525C56.7322 74.4637 56.5491 74.3103 56.3384 74.2047C56.1276 74.099 55.8951 74.044 55.6592 74.044C55.4234 74.044 55.1908 74.099 54.9801 74.2047C54.7694 74.3103 54.5863 74.4637 54.4455 74.6525C53.6051 76.5209 52.2689 78.1245 50.5813 79.2898C48.8937 80.4552 46.9189 81.138 44.8706 81.2644C42.8062 81.1486 40.8131 80.4697 39.1086 79.3017C37.4041 78.1337 36.0534 76.5213 35.2036 74.6402C35.1765 74.5922 35.1446 74.5471 35.1085 74.5055C35.0699 74.4352 35.0236 74.3695 34.9704 74.3095C34.9122 74.2593 34.8483 74.2162 34.7801 74.1808C34.7353 74.1427 34.687 74.1089 34.6359 74.0798H34.6175C34.5562 74.0618 34.4936 74.0485 34.4303 74.04C34.2136 73.988 33.986 74.0051 33.7797 74.089C33.7549 74.1046 33.7313 74.122 33.7091 74.141C33.6115 74.1901 33.5216 74.253 33.4421 74.3278C33.398 74.3795 33.3599 74.436 33.3285 74.4963C33.2872 74.5461 33.2503 74.5994 33.218 74.6555C32.3791 76.5281 31.0424 78.1357 29.3529 79.304C27.6634 80.4723 25.6855 81.1566 23.6339 81.2828C21.5696 81.1666 19.5767 80.4876 17.8722 79.3196C16.1678 78.1516 14.817 76.5395 13.967 74.6586C13.8604 74.4267 13.6748 74.24 13.4433 74.1318C13.2118 74.0236 12.9493 74.0008 12.7026 74.0675C12.4511 73.9962 12.1822 74.0191 11.9465 74.1319C11.7107 74.2447 11.5245 74.4397 11.4229 74.68C10.5801 76.5465 9.24261 78.148 7.55469 79.3116C5.86677 80.4752 3.8925 81.1568 1.84488 81.2828C1.56634 81.2975 1.30409 81.4184 1.11215 81.6203C0.920221 81.8223 0.813232 82.0901 0.813232 82.3684C0.813232 82.6468 0.920221 82.9145 1.11215 83.1165C1.30409 83.3185 1.56634 83.4393 1.84488 83.4541C4.07267 83.3988 6.2472 82.7629 8.15247 81.6094C10.0577 80.456 11.6274 78.8251 12.7057 76.8789C13.8022 78.8242 15.3854 80.4525 17.3007 81.6049C19.2161 82.7573 21.3982 83.3944 23.6339 83.4541C25.7764 83.4122 27.8727 82.8258 29.7248 81.7503C31.5768 80.6748 33.1235 79.1457 34.2185 77.3076C35.3313 79.1448 36.8913 80.6715 38.7535 81.746C40.6158 82.8206 42.7199 83.4081 44.8706 83.4541C47.0794 83.4018 49.2365 82.7768 51.1299 81.6406C53.0234 80.5045 54.588 78.8962 55.67 76.9738C56.7696 78.8956 58.3476 80.5018 60.2513 81.637C62.1549 82.7722 64.3199 83.3981 66.5369 83.4541C68.6797 83.4139 70.7767 82.8283 72.629 81.7526C74.4814 80.6769 76.0278 79.1469 77.1214 77.3076C78.2347 79.1444 79.7948 80.6708 81.6569 81.7453C83.5191 82.8198 85.623 83.4075 87.7735 83.4541C88.0521 83.4393 88.3143 83.3185 88.5063 83.1165C88.6982 82.9145 88.8052 82.6468 88.8052 82.3684C88.8052 82.0901 88.6982 81.8223 88.5063 81.6203C88.3143 81.4184 88.0521 81.2975 87.7735 81.2828Z" fill="#AA8453"/>
</g>
</svg>
