<svg width="101" height="100" viewBox="0 0 101 100" fill="none" xmlns="http://www.w3.org/2000/svg">
<g opacity="0.1">
<path fill-rule="evenodd" clip-rule="evenodd" d="M12.5781 97.9166V41.6666C12.5781 37.0645 16.3171 33.3333 20.9288 33.3333V24.9999C20.9288 22.6999 22.7994 20.8333 25.1042 20.8333H29.2795V4.16659C29.2795 3.01659 30.2127 2.08325 31.3672 2.08325C32.5217 2.08325 33.4549 3.01659 33.4549 4.16659V20.8333H37.6302C39.935 20.8333 41.8056 22.6999 41.8056 24.9999V33.3333C46.4172 33.3333 50.1563 37.0645 50.1563 41.6666V58.3333H64.77V45.8333H73.1207V39.5833H85.6467V45.8333H87.7344V97.9166H12.5781ZM37.6302 27.0833C37.6302 25.9333 36.697 24.9999 35.5425 24.9999H27.1918C26.0374 24.9999 25.1042 25.9333 25.1042 27.0833V33.3333H37.6302V27.0833ZM45.9809 41.6666C45.9809 39.3666 44.1103 37.4999 41.8056 37.4999H20.9288C18.624 37.4999 16.7535 39.3666 16.7535 41.6666V93.7499H45.9809V41.6666ZM64.77 62.4999H50.1563V93.7499H64.77V62.4999ZM83.559 49.9999H68.9453V93.7499H83.559V49.9999ZM75.2083 56.2499H77.296C78.4505 56.2499 79.3837 57.1812 79.3837 58.3333V60.4166C79.3837 61.5687 78.4505 62.4999 77.296 62.4999H75.2083C74.0539 62.4999 73.1207 61.5687 73.1207 60.4166V58.3333C73.1207 57.1812 74.0539 56.2499 75.2083 56.2499ZM75.2083 68.7499H77.296C78.4505 68.7499 79.3837 69.6812 79.3837 70.8333V72.9166C79.3837 74.0687 78.4505 74.9999 77.296 74.9999H75.2083C74.0539 74.9999 73.1207 74.0687 73.1207 72.9166V70.8333C73.1207 69.6812 74.0539 68.7499 75.2083 68.7499ZM75.2083 81.2499H77.296C78.4505 81.2499 79.3837 82.1812 79.3837 83.3333V85.4166C79.3837 86.5687 78.4505 87.4999 77.296 87.4999H75.2083C74.0539 87.4999 73.1207 86.5687 73.1207 85.4166V83.3333C73.1207 82.1812 74.0539 81.2499 75.2083 81.2499ZM56.4193 68.7499H58.5069C59.6614 68.7499 60.5946 69.6812 60.5946 70.8333V72.9166C60.5946 74.0687 59.6614 74.9999 58.5069 74.9999H56.4193C55.2648 74.9999 54.3316 74.0687 54.3316 72.9166V70.8333C54.3316 69.6812 55.2648 68.7499 56.4193 68.7499ZM56.4193 81.2499H58.5069C59.6614 81.2499 60.5946 82.1812 60.5946 83.3333V85.4166C60.5946 86.5687 59.6614 87.4999 58.5069 87.4999H56.4193C55.2648 87.4999 54.3316 86.5687 54.3316 85.4166V83.3333C54.3316 82.1812 55.2648 81.2499 56.4193 81.2499ZM37.6302 87.4999H35.5425C34.3881 87.4999 33.4549 86.5687 33.4549 85.4166V83.3333C33.4549 82.1833 34.3881 81.2499 35.5425 81.2499H37.6302C38.7847 81.2499 39.7179 82.1833 39.7179 83.3333V85.4166C39.7179 86.5687 38.7847 87.4999 37.6302 87.4999ZM37.6302 74.9999H35.5425C34.3881 74.9999 33.4549 74.0687 33.4549 72.9166V70.8333C33.4549 69.6833 34.3881 68.7499 35.5425 68.7499H37.6302C38.7847 68.7499 39.7179 69.6833 39.7179 70.8333V72.9166C39.7179 74.0687 38.7847 74.9999 37.6302 74.9999ZM37.6302 62.4999H35.5425C34.3881 62.4999 33.4549 61.5687 33.4549 60.4166V58.3333C33.4549 57.1833 34.3881 56.2499 35.5425 56.2499H37.6302C38.7847 56.2499 39.7179 57.1833 39.7179 58.3333V60.4166C39.7179 61.5687 38.7847 62.4999 37.6302 62.4999ZM37.6302 49.9999H35.5425C34.3881 49.9999 33.4549 49.0687 33.4549 47.9166V45.8333C33.4549 44.6833 34.3881 43.7499 35.5425 43.7499H37.6302C38.7847 43.7499 39.7179 44.6833 39.7179 45.8333V47.9166C39.7179 49.0687 38.7847 49.9999 37.6302 49.9999ZM27.1918 87.4999H25.1042C23.9497 87.4999 23.0165 86.5687 23.0165 85.4166V83.3333C23.0165 82.1812 23.9497 81.2499 25.1042 81.2499H27.1918C28.3463 81.2499 29.2795 82.1812 29.2795 83.3333V85.4166C29.2795 86.5687 28.3463 87.4999 27.1918 87.4999ZM27.1918 74.9999H25.1042C23.9497 74.9999 23.0165 74.0687 23.0165 72.9166V70.8333C23.0165 69.6812 23.9497 68.7499 25.1042 68.7499H27.1918C28.3463 68.7499 29.2795 69.6812 29.2795 70.8333V72.9166C29.2795 74.0687 28.3463 74.9999 27.1918 74.9999ZM27.1918 62.4999H25.1042C23.9497 62.4999 23.0165 61.5687 23.0165 60.4166V58.3333C23.0165 57.1833 23.9497 56.2499 25.1042 56.2499H27.1918C28.3463 56.2499 29.2795 57.1833 29.2795 58.3333V60.4166C29.2795 61.5687 28.3463 62.4999 27.1918 62.4999ZM27.1918 49.9999H25.1042C23.9497 49.9999 23.0165 49.0687 23.0165 47.9166V45.8333C23.0165 44.6833 23.9497 43.7499 25.1042 43.7499H27.1918C28.3463 43.7499 29.2795 44.6833 29.2795 45.8333V47.9166C29.2795 49.0687 28.3463 49.9999 27.1918 49.9999Z" fill="#AA8453"/>
</g>
</svg>
