<svg width="63" height="63" viewBox="0 0 63 63" fill="none" xmlns="http://www.w3.org/2000/svg">
<path d="M54.8299 28.5469C54.5838 28.5469 54.3377 28.5469 54.0916 28.4977C53.3041 28.35 52.5166 28.0055 51.8275 27.4149C46.2166 22.5422 38.9814 19.8352 31.5002 19.8352C23.9697 19.8352 16.7346 22.5422 11.0744 27.4641C10.2869 28.1532 9.25331 28.5469 8.17049 28.5469C6.98924 28.5469 5.85721 28.104 5.02049 27.2672L2.95331 25.2001C2.06737 24.3141 1.6244 23.1329 1.67362 21.9024C1.72284 20.6719 2.26424 19.5399 3.15018 18.7032C10.976 11.8125 21.0658 8.02271 31.5002 8.02271C41.9346 8.02271 52.0244 11.8125 59.8502 18.7032C60.7853 19.4907 61.3267 20.6719 61.376 21.9024C61.4252 23.1329 60.933 24.3141 60.0963 25.2001L58.0291 27.2672C57.0939 28.104 56.0111 28.5469 54.8299 28.5469ZM31.5002 9.99146C21.558 9.99146 11.9111 13.5844 4.47909 20.1797C3.9869 20.6227 3.64237 21.2625 3.64237 21.9516C3.64237 22.6407 3.88846 23.2805 4.38065 23.7727L6.44784 25.8399C6.89081 26.2829 7.53065 26.5782 8.17049 26.5782C8.76112 26.5782 9.30253 26.3813 9.74549 25.9875C15.7994 20.7704 23.4775 17.8665 31.5002 17.8665C39.4736 17.8665 47.1517 20.7211 53.1564 25.8891C53.5502 26.2336 53.9931 26.4797 54.4361 26.529C55.2236 26.6766 56.0111 26.4305 56.6017 25.8399L58.6689 23.7727C59.1611 23.2805 59.4072 22.6407 59.4072 21.9516C59.4072 21.2625 59.0627 20.6227 58.5705 20.1797C51.0892 13.6336 41.4424 9.99146 31.5002 9.99146Z" fill="#AA8453"/>
<path d="M31.5001 54.3867C31.4017 54.3867 31.3525 54.3867 31.254 54.3867C27.8579 54.2391 25.1017 51.4828 24.954 48.0867C24.9048 46.3641 25.4954 44.6906 26.6767 43.4602C27.9071 42.1313 29.679 41.3438 31.5001 41.3438C33.3212 41.3438 35.0931 42.1313 36.3235 43.4602C37.4556 44.6906 38.0462 46.2164 38.0462 47.8898C38.0462 49.6617 37.3571 51.3352 36.0282 52.6148C34.7978 53.6977 33.2228 54.3867 31.5001 54.3867ZM31.5001 43.2633C30.2204 43.2633 28.99 43.8047 28.1532 44.7398C27.3165 45.6258 26.9228 46.807 26.972 47.9883C27.0704 50.3508 29.0392 52.3195 31.3525 52.418C32.6321 52.4672 33.8134 52.0242 34.6993 51.1383C35.5853 50.2523 36.0775 49.1203 36.0775 47.8406C36.0775 46.7086 35.6345 45.5766 34.8962 44.7398C34.0103 43.8047 32.7798 43.2633 31.5001 43.2633Z" fill="#AA8453"/>
<path d="M42.5253 39.8672C42.3284 39.8672 42.1315 39.8672 41.8854 39.818C41.1471 39.7195 40.4089 39.4242 39.7198 38.8828C37.3573 37.1109 34.5026 36.1758 31.5003 36.1758C28.4979 36.1758 25.6432 37.1109 23.2807 38.8828C22.5917 39.4242 21.8534 39.7195 21.1151 39.818C19.737 40.0148 18.3589 39.5719 17.3745 38.5875L15.3565 36.5695C14.9136 36.1266 14.569 35.6344 14.3229 35.093C13.5354 33.2227 14.0768 31.1555 15.6518 29.925C20.18 26.2828 25.6432 24.3633 31.5003 24.3633C37.3573 24.3633 42.8206 26.2828 47.3979 29.8758C48.9729 31.1063 49.4651 33.1734 48.7268 35.0437C48.53 35.5852 48.1854 36.0773 47.6932 36.5203L45.6753 38.5383C44.8386 39.4242 43.7065 39.8672 42.5253 39.8672ZM42.1807 37.8492C42.9682 37.9477 43.7065 37.7016 44.2479 37.1602L46.2659 35.1422C46.512 34.8961 46.7089 34.6008 46.8565 34.3055C47.2995 33.2719 47.0042 32.0906 46.1182 31.4016C41.9839 28.1039 36.9143 26.332 31.5003 26.332C26.0862 26.332 21.0167 28.1039 16.8331 31.4016C15.9472 32.0906 15.7011 33.2227 16.0948 34.3055C16.1932 34.6008 16.3901 34.8469 16.6854 35.1422L18.7034 37.1602C19.2448 37.7016 20.0323 37.9477 20.7706 37.8492C21.1643 37.8 21.6073 37.6031 22.0503 37.2586C24.7573 35.2406 28.055 34.1578 31.4511 34.1578C34.8964 34.1578 38.1448 35.2406 40.8518 37.2586C41.344 37.6031 41.787 37.8 42.1807 37.8492Z" fill="#AA8453"/>
</svg>
