<svg width="80" height="80" viewBox="0 0 80 80" fill="none" xmlns="http://www.w3.org/2000/svg">
<path d="M79.9921 22.6779C79.996 17.4483 76.2072 12.9874 71.046 12.1448C65.8848 11.3021 60.874 14.3262 59.2143 19.2854C57.5546 24.2446 59.7357 29.6757 64.3645 32.1093C63.7749 32.4797 63.229 32.9152 62.7369 33.4076C61.2968 34.833 60.3689 36.6946 60.0974 38.7025C59.3432 37.8449 58.2587 37.3498 57.1166 37.3414H53.3306V28.0099C53.3237 23.8567 50.576 20.2068 46.5866 19.0517C50.1625 16.2435 51.5647 11.477 50.0791 7.17968C48.5936 2.88271 44.5467 0 39.9999 0C35.4532 0 31.4063 2.88271 29.9207 7.17999C28.435 11.4773 29.8373 16.2438 33.4131 19.052C29.4238 20.2071 26.676 23.857 26.6691 28.0103V37.3417H22.8832C21.7415 37.3503 20.6577 37.8453 19.9038 38.7028C19.5224 35.9843 17.9616 33.5724 15.6379 32.1109C19.982 29.8299 22.2092 24.8795 21.0346 20.1156C19.86 15.3518 15.5866 12.004 10.6801 12.004C5.77357 12.004 1.50051 15.3517 0.325899 20.1154C-0.848713 24.8792 1.37866 29.8297 5.72265 32.1107C3.00068 33.8138 1.34554 36.7968 1.34086 40.0077V58.6708C1.33851 61.197 2.53952 63.5732 4.5749 65.0695L0.557104 72.0361C0.195144 72.6469 0.00533736 73.3443 0.00783687 74.0543V76.0006C0.00783687 78.2093 1.79842 79.9998 4.00705 79.9998H75.9929C78.2015 79.9998 79.9921 78.2093 79.9921 76.0006V74.0543C79.9971 73.3519 79.8129 72.6613 79.4589 72.0547L75.4264 65.0694C77.4607 63.5723 78.6611 61.1964 78.659 58.6706V40.0079C78.6544 36.7987 77.0009 33.8171 74.2813 32.1135C77.7897 30.2731 79.9888 26.6397 79.9921 22.6779ZM32.0015 10.6802C32.0015 6.26283 35.5825 2.68181 39.9999 2.68181C44.4174 2.68181 47.9984 6.26283 47.9984 10.6802C47.9984 15.0976 44.4174 18.6787 39.9999 18.6787C35.5844 18.6743 32.0059 15.0958 32.0015 10.6802ZM29.3353 28.0103C29.3397 24.331 32.3213 21.3494 36.0007 21.3449H43.9992C47.6784 21.3492 50.66 24.3308 50.6646 28.0103V37.3417H47.9984V28.0103C47.9984 27.274 47.4015 26.6772 46.6654 26.6772C45.9291 26.6772 45.3323 27.2742 45.3323 28.0103V37.3417H34.6677V28.0103C34.6677 27.274 34.0708 26.6772 33.3347 26.6772C32.5986 26.6772 32.0017 27.2742 32.0017 28.0103V37.3417H29.3355L29.3353 28.0103ZM21.7156 40.6743C21.956 40.2577 22.4023 40.003 22.8833 40.0077H57.1166C57.5966 40.004 58.0417 40.2585 58.2817 40.6743L61.2037 45.74L60.6706 46.6731H53.572C51.1313 46.6413 49.0539 48.4425 48.7396 50.8629C48.605 52.1764 49.033 53.4854 49.9178 54.4654C50.8025 55.4453 52.0612 56.0047 53.3814 56.0046H62.7409C64.0635 56.0011 65.3445 55.5431 66.3696 54.7075L76.3462 72.0014H3.65384L13.6305 54.7075C14.6556 55.5431 15.9366 56.001 17.2591 56.0046H26.6187C27.939 56.0047 29.1975 55.4453 30.0822 54.4654C30.9669 53.4854 31.3951 52.1763 31.2604 50.8629C30.9461 48.4425 28.8685 46.6413 26.4281 46.6731H19.3295L18.7963 45.74L21.7156 40.6743ZM2.67403 22.6779C2.67403 18.2605 6.25504 14.6794 10.6725 14.6794C15.0899 14.6794 18.6709 18.2605 18.6709 22.6779C18.6709 27.0953 15.0899 30.6763 10.6725 30.6763C6.25676 30.6719 2.6784 27.0934 2.67403 22.6779ZM4.00705 58.6708V40.0079C4.01142 36.3286 6.99302 33.347 10.6725 33.3425C14.3509 33.349 17.3311 36.3294 17.3379 40.0079V42.9406L17.2646 43.0673L15.3383 39.6933C14.9643 39.0734 14.164 38.8653 13.5355 39.2244C12.9069 39.5836 12.6799 40.3788 13.0242 41.0157L17.0128 47.9957C17.4877 48.8271 18.372 49.3401 19.3297 49.3395H26.4282C27.5024 49.2984 28.438 50.0658 28.6078 51.1271C28.6687 51.6934 28.4844 52.2588 28.1012 52.6801C27.7244 53.102 27.1845 53.342 26.6188 53.3385H17.2591C16.1473 53.3368 15.1211 52.7416 14.5676 51.7774L9.64719 43.1659C9.2732 42.546 8.47289 42.3379 7.84442 42.697C7.21595 43.0562 6.9888 43.8514 7.33311 44.4883L11.8655 52.4281L5.9187 62.742C4.70738 61.737 4.00674 60.2447 4.00705 58.6708ZM75.9929 77.3338H4.00705C3.27079 77.3338 2.67403 76.7369 2.67403 76.0008V74.6678H77.326V76.0008C77.3259 76.7369 76.7291 77.3338 75.9929 77.3338ZM75.9929 40.0079V58.6709C75.9932 60.2448 75.2925 61.7372 74.0812 62.7422L68.1277 52.4283L72.6601 44.4884C73.0042 43.8515 72.7772 43.0564 72.1488 42.6972C71.5203 42.3381 70.7198 42.5461 70.346 43.166L65.4256 51.7776C64.8733 52.7398 63.8501 53.3346 62.7408 53.3387H53.3812C52.8155 53.342 52.2757 53.1022 51.8989 52.6802C51.5156 52.2588 51.3313 51.6936 51.3922 51.1273C51.562 50.0659 52.4976 49.2984 53.5718 49.3396H60.6704C61.6268 49.3396 62.5097 48.8274 62.9846 47.9973L66.9732 41.016C67.3174 40.3791 67.0904 39.5839 66.4619 39.2248C65.8333 38.8656 65.033 39.0737 64.6591 39.6936L62.7355 43.0609L62.6622 42.9409V40.0082C62.6688 36.3297 65.6491 33.3495 69.3276 33.3428C73.0069 33.3469 75.9885 36.3285 75.9929 40.0079ZM69.3274 30.6763C64.91 30.6763 61.329 27.0953 61.329 22.6779C61.329 18.2605 64.91 14.6794 69.3274 14.6794C73.7449 14.6794 77.3259 18.2605 77.3259 22.6779C77.3215 27.0934 73.7431 30.6719 69.3274 30.6763Z" fill="#AA8453" fill-opacity="0.1"/>
</svg>
