<svg width="90" height="90" viewBox="0 0 90 90" fill="none" xmlns="http://www.w3.org/2000/svg">
<g clip-path="url(#clip0_2057_92)">
<path d="M85.5 30H83.91C82.9815 16.638 69.8295 6 53.7495 6H52.224C52.4017 5.51961 52.495 5.01216 52.5 4.5C52.5 3.30653 52.0259 2.16193 51.182 1.31802C50.3381 0.474106 49.1935 0 48 0C46.8065 0 45.6619 0.474106 44.818 1.31802C43.9741 2.16193 43.5 3.30653 43.5 4.5C43.505 5.01216 43.5983 5.51961 43.776 6H42.2505C26.1705 6 13.0185 16.638 12.09 30H10.5C9.30653 30 8.16194 30.4741 7.31802 31.318C6.47411 32.1619 6 33.3065 6 34.5C6 35.6935 6.47411 36.8381 7.31802 37.682C8.16194 38.5259 9.30653 39 10.5 39H27.15C27.0597 39.3275 27.0118 39.6653 27.0075 40.005V45C27.2434 49.1551 26.1797 53.2806 23.964 56.8035C23.5665 57.5625 23.1345 58.392 22.6665 59.328C21.5472 61.5387 20.6913 63.8732 20.1165 66.2835C19.2791 65.8351 18.3221 65.6606 17.3803 65.7847C16.4385 65.9087 15.5593 66.325 14.8665 66.975C8.3295 73.212 4.4715 75.36 2.7525 76.0875C1.93645 76.4282 1.23956 77.0029 0.749709 77.7391C0.259859 78.4754 -0.00100925 79.3402 2.93436e-06 80.2245V85.5C2.93436e-06 86.6935 0.474109 87.8381 1.31802 88.682C2.16194 89.5259 3.30653 90 4.5 90H25.95C26.9717 90.0001 27.963 89.6526 28.761 89.0145L32.82 85.7655C33.2874 85.3953 33.6757 84.935 33.962 84.412C34.2482 83.8889 34.4266 83.3138 34.4865 82.7205C34.5463 82.1273 34.4865 81.5281 34.3105 80.9584C34.1346 80.3887 33.846 79.8601 33.462 79.404C36.7004 75.9252 40.499 73.0138 44.7 70.791C45.5661 70.3587 46.3387 69.7603 46.974 69.03C50.9722 64.3875 55.4721 60.202 60.3915 56.55C61.9494 55.4238 63.0093 53.7368 63.348 51.8445C64.8585 43.8945 68.4555 40.0275 69.561 38.9955H85.5C86.6935 38.9955 87.8381 38.5214 88.682 37.6775C89.5259 36.8336 90 35.689 90 34.4955C90 33.302 89.5259 32.1574 88.682 31.3135C87.8381 30.4696 86.6935 29.9955 85.5 29.9955V30ZM46.5 4.5C46.5 4.20333 46.588 3.91332 46.7528 3.66664C46.9176 3.41997 47.1519 3.22771 47.426 3.11418C47.7001 3.00065 48.0017 2.97094 48.2926 3.02882C48.5836 3.0867 48.8509 3.22956 49.0607 3.43934C49.2704 3.64912 49.4133 3.91639 49.4712 4.20736C49.5291 4.49834 49.4994 4.79994 49.3858 5.07403C49.2723 5.34811 49.08 5.58238 48.8334 5.7472C48.5867 5.91203 48.2967 6 48 6C47.6022 6 47.2206 5.84196 46.9393 5.56066C46.658 5.27936 46.5 4.89782 46.5 4.5ZM42.2505 9H53.7495C68.163 9 79.9665 18.3 80.9085 30H15.0915C16.0335 18.3 27.837 9 42.2505 9ZM30.945 83.421L26.8845 86.6715C26.6192 86.8837 26.2897 86.9995 25.95 87H4.5C4.10218 87 3.72065 86.842 3.43934 86.5607C3.15804 86.2794 3 85.8978 3 85.5V80.2245C2.99884 79.9315 3.08439 79.6447 3.24587 79.4002C3.40735 79.1557 3.63756 78.9644 3.9075 78.8505C6.237 77.8665 10.386 75.3855 16.923 69.1485C17.2081 68.8771 17.5869 68.7261 17.9805 68.727C18.1752 68.7262 18.3682 68.7638 18.5484 68.8377C18.7286 68.9115 18.8924 69.0202 19.0305 69.1575L31.0665 81.192C31.2154 81.3412 31.3311 81.5201 31.4062 81.7171C31.4813 81.914 31.5141 82.1246 31.5023 82.3351C31.4906 82.5455 31.4346 82.7511 31.338 82.9385C31.2415 83.1259 31.1066 83.2908 30.942 83.4225L30.945 83.421ZM60.402 51.291C60.2033 52.4268 59.5714 53.441 58.6395 54.12C53.5323 57.9018 48.8602 62.2383 44.709 67.05C44.3316 67.4845 43.8731 67.8412 43.359 68.1C38.8845 70.4639 34.8346 73.5562 31.3755 77.25L22.7115 68.586C23.1812 65.8281 24.071 63.1586 25.35 60.6705C25.809 59.751 26.2335 58.9365 26.6235 58.191C29.0642 54.2397 30.2421 49.6381 30 45V40.005C30.0004 39.7386 30.1064 39.4832 30.2948 39.2948C30.4832 39.1064 30.7386 39.0004 31.005 39C31.6981 39.0011 32.3703 39.2375 32.9115 39.6705C33.445 40.0954 33.8111 40.6952 33.945 41.364C34.2928 43.0545 34.4786 44.7743 34.5 46.5C34.4511 48.6208 34.2607 50.736 33.93 52.8315C33.8077 53.7245 33.8781 54.6334 34.1364 55.497C34.3947 56.3605 34.835 57.1588 35.4276 57.8379C36.0203 58.5171 36.7515 59.0615 37.5721 59.4344C38.3927 59.8073 39.2836 60.0002 40.185 60C41.7165 59.9991 43.1964 59.4463 44.3535 58.443L53.8485 50.118C54.7431 49.338 55.4371 48.3543 55.872 47.25C57.6435 42.8475 59.8305 39.7935 61.767 39H65.55C62.9037 42.6422 61.1413 46.8501 60.402 51.291ZM53.9085 39H57.126C55.4305 41.1687 54.068 43.5782 53.0835 46.149C52.8245 46.8099 52.4086 47.3978 51.8715 47.862L48.6225 50.712C48.9465 49.464 49.242 48.162 49.479 46.749C49.994 43.7239 51.5632 40.9788 53.9085 39ZM46.521 46.251C46.0895 49.159 45.2708 51.9962 44.0865 54.687L42.384 56.187C41.7067 56.7452 40.8412 57.0225 39.9657 56.962C39.0901 56.9014 38.271 56.5076 37.677 55.8615C37.3673 55.5077 37.1375 55.0913 37.0034 54.6406C36.8693 54.1899 36.834 53.7156 36.9 53.25C37.2519 51.0161 37.4524 48.761 37.5 46.5C37.4777 44.5764 37.2723 42.6592 36.8865 40.7745C36.7573 40.1497 36.5267 39.5503 36.204 39H49.785C48.0956 41.0986 46.9719 43.5949 46.521 46.251ZM85.5 36H10.5C10.1022 36 9.72065 35.842 9.43934 35.5607C9.15804 35.2794 9 34.8978 9 34.5C9 34.1022 9.15804 33.7206 9.43934 33.4393C9.72065 33.158 10.1022 33 10.5 33H85.5C85.8978 33 86.2794 33.158 86.5607 33.4393C86.842 33.7206 87 34.1022 87 34.5C87 34.8978 86.842 35.2794 86.5607 35.5607C86.2794 35.842 85.8978 36 85.5 36Z" fill="#AA8453" fill-opacity="0.1"/>
<path d="M41.9864 12C32.0324 12.0855 23.2649 16.959 19.6514 24.414C19.4777 24.772 19.4534 25.1844 19.5838 25.5604C19.7142 25.9363 19.9886 26.2451 20.3466 26.4187C20.7047 26.5924 21.117 26.6167 21.493 26.4863C21.869 26.3559 22.1777 26.0815 22.3514 25.7235C25.4264 19.3845 33.3284 15.0735 42.0164 15C42.4134 14.9956 42.7925 14.834 43.0706 14.5506C43.3487 14.2672 43.5031 13.8851 43.4999 13.488C43.492 13.0914 43.3293 12.7136 43.0464 12.4355C42.7635 12.1574 42.3831 12.0011 41.9864 12Z" fill="#AA8453" fill-opacity="0.1"/>
</g>
<defs>
<clipPath id="clip0_2057_92">
<rect width="90" height="90" fill="white"/>
</clipPath>
</defs>
</svg>