<svg width="99" height="98" viewBox="0 0 99 98" fill="none" xmlns="http://www.w3.org/2000/svg">
<g clip-path="url(#clip0_1_2140)">
<path d="M78.9359 58.7009C78.3799 58.5077 77.8148 58.32 77.2448 58.1352C77.5423 57.9607 77.8352 57.7827 78.12 57.5991C83.6543 54.0346 86.7021 48.8616 86.7021 43.0329C86.7021 37.2042 83.6541 32.0313 78.12 28.4667C76.0784 27.1517 73.7092 26.0647 71.0575 25.2136C73.7286 22.7029 75.1459 19.8626 75.1459 16.8887C75.1459 12.1108 71.4887 7.67654 64.8477 4.40253C59.1721 1.60475 52.0489 0 45.3043 0C38.6281 0 33.0262 1.63346 29.1044 4.72352C25.2756 7.74047 23.1669 12.0609 23.1669 16.8891C23.1669 21.0618 24.7431 24.8545 27.6423 27.7551C27.242 27.9063 26.8448 28.0596 26.4537 28.2173C16.882 32.0745 11.6105 37.3365 11.6105 43.0333C11.6105 47.4927 14.841 51.6854 20.8353 55.1466C17.2064 56.1155 13.9794 57.3715 11.2196 58.9035C4.01958 62.9001 0.0541992 68.7508 0.0541992 75.3783C0.0541992 82.0057 4.01958 87.8564 11.2196 91.8532C18.464 95.8744 28.9184 98 41.452 98C54.3962 98 68.0587 95.8335 78.9359 92.0557C91.5767 87.6654 98.2584 81.8985 98.2584 75.3783C98.2584 68.858 91.5767 63.0911 78.9359 58.7009ZM41.452 92.2578C29.8948 92.2578 20.4078 90.3826 14.0166 86.8349C10.272 84.7566 5.80835 81.0816 5.80835 75.3783C5.80835 69.6749 10.272 65.9999 14.0166 63.9215C18.1669 61.6177 23.6238 60.0202 30.1041 59.1824C37.6656 61.6853 46.5015 63.0923 54.9344 63.0923C59.8715 63.0923 64.3904 62.5874 68.3759 61.6083C82.6065 65.0067 92.5042 70.6038 92.5042 75.3783C92.5042 82.8186 68.4674 92.2578 41.452 92.2578ZM17.3646 43.0331C17.3646 39.1585 24.0339 34.6453 33.7835 31.7378C37.0561 33.0788 40.9495 33.7782 45.3043 33.7782C51.934 33.7782 58.9261 32.225 64.5529 29.5147C74.7553 31.3545 80.948 36.2606 80.948 43.0333C80.948 51.7306 70.737 57.3503 54.9344 57.3503C35.0536 57.3501 17.3646 49.344 17.3646 43.0331ZM28.921 16.8891C28.921 10.0134 35.1986 5.74219 45.3043 5.74219C51.1083 5.74219 57.4614 7.16606 62.299 9.55098C66.7402 11.7405 69.3917 14.4837 69.3917 16.8891C69.3917 19.2945 66.7402 22.0376 62.299 24.2272C57.4613 26.6122 51.1081 28.036 45.3043 28.036C35.1986 28.036 28.921 23.7648 28.921 16.8891Z" fill="#AA8453" fill-opacity="0.1"/>
</g>
<defs>
<clipPath id="clip0_1_2140">
<rect width="98.2042" height="98" fill="white" transform="translate(0.0541992)"/>
</clipPath>
</defs>
</svg>
