<svg width="61" height="60" viewBox="0 0 61 60" fill="none" xmlns="http://www.w3.org/2000/svg">
<g clip-path="url(#clip0_1_2143)">
<path d="M48.3887 35.9393C48.0483 35.8211 47.7023 35.7061 47.3533 35.593C47.5354 35.4861 47.7147 35.3771 47.8891 35.2648C51.2775 33.0824 53.1435 29.9153 53.1435 26.3467C53.1435 22.7781 51.2774 19.611 47.8891 17.4286C46.6392 16.6235 45.1887 15.958 43.5652 15.4369C45.2005 13.8997 46.0682 12.1608 46.0682 10.34C46.0682 7.4148 43.8292 4.69992 39.7632 2.69543C36.2884 0.9825 31.9272 0 27.7979 0C23.7104 0 20.2807 1.00008 17.8796 2.89195C15.5354 4.73906 14.2444 7.38422 14.2444 10.3403C14.2444 12.895 15.2094 15.217 16.9844 16.9929C16.7393 17.0855 16.4961 17.1793 16.2567 17.2759C10.3965 19.6375 7.16901 22.8591 7.16901 26.3469C7.16901 29.0771 9.14691 31.6441 12.8169 33.7632C10.5951 34.3564 8.6194 35.1254 6.92968 36.0634C2.52153 38.5103 0.09375 42.0923 0.09375 46.15C0.09375 50.2076 2.52153 53.7896 6.92968 56.2366C11.3651 58.6986 17.7657 60 25.4394 60C33.3644 60 41.7291 58.6736 48.3887 56.3606C56.1279 53.6727 60.2188 50.142 60.2188 46.15C60.2188 42.158 56.1279 38.6272 48.3887 35.9393ZM25.4394 56.4844C18.3635 56.4844 12.5551 55.3363 8.64219 53.1642C6.34957 51.8918 3.6167 49.6418 3.6167 46.15C3.6167 42.6581 6.34957 40.4081 8.64219 39.1356C11.1832 37.7251 14.5241 36.7471 18.4916 36.2341C23.1212 37.7665 28.5309 38.6279 33.6939 38.6279C36.7166 38.6279 39.4833 38.3188 41.9234 37.7194C50.636 39.8 56.6958 43.2268 56.6958 46.15C56.6958 50.7053 41.9794 56.4844 25.4394 56.4844ZM10.692 26.3468C10.692 23.9746 14.7752 21.2114 20.7443 19.4313C22.748 20.2523 25.1317 20.6805 27.7979 20.6805C31.8569 20.6805 36.1377 19.7296 39.5827 18.0702C45.8291 19.1966 49.6205 22.2004 49.6205 26.3469C49.6205 31.6718 43.369 35.1124 33.6939 35.1124C21.522 35.1123 10.692 30.2106 10.692 26.3468ZM17.7673 10.3403C17.7673 6.13066 21.6108 3.51562 27.7979 3.51562C31.3514 3.51562 35.241 4.38738 38.2028 5.84754C40.9219 7.18805 42.5453 8.86758 42.5453 10.3403C42.5453 11.813 40.9219 13.4924 38.2028 14.833C35.2409 16.2932 31.3512 17.1649 27.7979 17.1649C21.6108 17.1649 17.7673 14.5499 17.7673 10.3403Z" fill="#AA8453"/>
</g>
<defs>
<clipPath id="clip0_1_2143">
<rect width="60.125" height="60" fill="white" transform="translate(0.09375)"/>
</clipPath>
</defs>
</svg>
