<svg width="60" height="60" viewBox="0 0 60 60" fill="none" xmlns="http://www.w3.org/2000/svg">
<path d="M50.1525 9.55811H47.2239C46.7867 9.55811 46.5099 9.83502 46.5099 10.141H46.5098V19.6119C46.5098 20.0053 46.9761 20.2094 47.4569 20.2094C47.9232 20.2094 48.404 20.0054 48.404 19.6119V16.2316H50.036C51.9593 16.2316 53.4601 15.3135 53.4601 12.924V12.8366C53.4601 10.447 52.003 9.55811 50.1525 9.55811ZM51.5658 13.0697C51.5658 14.2062 50.983 14.7454 50.0359 14.7454H48.404V11.2192H50.0359C50.983 11.2192 51.5658 11.7584 51.5658 12.8949V13.0697Z" fill="#AA8453"/>
<path d="M34.3437 13.2606C31.5776 10.4945 27.9 8.97119 23.9882 8.97119C20.0764 8.97119 16.3988 10.4945 13.6327 13.2606C13.2989 13.5943 13.2989 14.1355 13.6327 14.4694C13.9665 14.8031 14.5076 14.8031 14.8414 14.4694C17.2846 12.0263 20.5329 10.6807 23.9881 10.6807C27.4432 10.6807 30.6916 12.0263 33.1348 14.4694C33.3017 14.6362 33.5205 14.7197 33.7392 14.7197C33.9579 14.7197 34.1767 14.6362 34.3437 14.4694C34.6774 14.1356 34.6774 13.5943 34.3437 13.2606Z" fill="#AA8453"/>
<path d="M30.8175 16.7869C27.0518 13.0212 20.9247 13.0212 17.1591 16.7869C16.8252 17.1207 16.8252 17.6619 17.1591 17.9957C17.4928 18.3294 18.0341 18.3294 18.3679 17.9957C21.467 14.8967 26.5096 14.8967 29.6087 17.9957C29.7756 18.1626 29.9942 18.246 30.213 18.246C30.4317 18.246 30.6505 18.1626 30.8175 17.9957C31.1512 17.6619 31.1512 17.1207 30.8175 16.7869Z" fill="#AA8453"/>
<path d="M27.3473 20.2572C25.4953 18.4052 22.4818 18.4052 20.6298 20.2572C20.2959 20.5909 20.2959 21.1321 20.6298 21.466C20.9635 21.7998 21.5048 21.7997 21.8386 21.466C23.0242 20.2805 24.9531 20.2805 26.1386 21.466C26.3055 21.633 26.5243 21.7163 26.743 21.7163C26.9616 21.7163 27.1804 21.6328 27.3473 21.466C27.6812 21.1321 27.6812 20.591 27.3473 20.2572Z" fill="#AA8453"/>
<path d="M42.0611 36.9043C41.6912 36.7008 41.3263 36.4779 40.9766 36.2416L35.323 32.4223C33.6071 31.263 31.6055 30.6504 29.5349 30.6504H19.1578C16.4033 30.6504 13.8116 31.7211 11.86 33.6653C10.8569 34.6647 9.71407 35.5008 8.46334 36.1502C7.72365 36.5344 7.26416 37.2903 7.26416 38.1232C7.26416 39.3497 8.26189 40.3474 9.48837 40.3474H13.0262C13.4983 40.3474 13.881 39.9647 13.881 39.4926C13.881 39.0206 13.4983 38.6379 13.0262 38.6379H9.48837C9.20454 38.6379 8.97357 38.4069 8.97357 38.1231C8.97357 37.9308 9.07986 37.7561 9.25107 37.6673C10.6563 36.9377 11.94 35.9986 13.0664 34.8763C14.6953 33.2535 16.8586 32.3598 19.1577 32.3598H21.4809V38.6379H18.6413C18.1692 38.6379 17.7865 39.0206 17.7865 39.4926C17.7865 39.9647 18.1692 40.3474 18.6413 40.3474H42.0784C42.7811 40.3474 43.3527 39.7757 43.3527 39.0731C43.3527 38.1733 42.8577 37.3422 42.0611 36.9043ZM23.1907 38.638V32.3599H29.535C31.2634 32.3599 32.934 32.8713 34.3661 33.8388L40.0198 37.6582C40.4124 37.9234 40.822 38.1737 41.2375 38.4022C41.3451 38.4614 41.4352 38.5427 41.5029 38.638H23.1907Z" fill="#AA8453"/>
<path d="M25.3085 41.647H22.6682C22.1962 41.647 21.8135 42.0297 21.8135 42.5017C21.8135 42.9738 22.1962 43.3565 22.6682 43.3565H25.3085C25.7805 43.3565 26.1632 42.9738 26.1632 42.5017C26.1632 42.0297 25.7805 41.647 25.3085 41.647Z" fill="#AA8453"/>
<path d="M59.2625 40.9296L58.9925 40.4814C57.975 38.7929 56.2825 37.6039 54.349 37.2193L52.1423 36.7804V25.5953H57.853C59.0289 25.5953 59.9854 24.6387 59.9854 23.463V6.81642C59.9854 5.64056 59.0288 4.68408 57.853 4.68408H41.2065C40.0306 4.68408 39.0741 5.64068 39.0741 6.81642V13.131C39.0741 13.6031 39.4568 13.9858 39.9289 13.9858C40.4011 13.9858 40.7837 13.6031 40.7837 13.131V6.81642C40.7837 6.58322 40.9734 6.39349 41.2066 6.39349H57.8532C58.0865 6.39349 58.2762 6.58322 58.2762 6.81642V23.4631C58.2762 23.6963 58.0865 23.886 57.8532 23.886H41.2065C40.9733 23.886 40.7836 23.6963 40.7836 23.4631V18.6878C40.7836 18.2158 40.4009 17.8331 39.9288 17.8331C39.4566 17.8331 39.074 18.2158 39.074 18.6878V23.4631C39.074 24.6389 40.0306 25.5954 41.2064 25.5954H47.6822V35.8937L46.5479 35.6681C44.9822 35.3567 43.4559 34.4119 42.4439 33.7281L36.7903 29.9088C34.6393 28.4558 32.1305 27.6878 29.5348 27.6878H19.1579C15.7049 27.6878 12.4562 29.0299 10.0101 31.4668C8.46231 33.0089 6.51396 34.0606 4.37565 34.5085L3.14846 34.7655C1.3241 35.1476 0 36.7779 0 38.6418V46.9199C0 47.9073 0.583005 48.8046 1.48546 49.2057L4.88998 50.7188C5.09588 51.7954 5.61455 52.8235 6.44634 53.6553C7.55177 54.7607 9.00383 55.3135 10.456 55.3135C11.9082 55.3135 13.3601 54.7607 14.4657 53.6553C15.1767 52.9443 15.6576 52.0896 15.9113 51.1841H44.2982C44.5519 52.0896 45.033 52.9443 45.744 53.6553C46.8151 54.7262 48.2389 55.3162 49.7536 55.3162C51.2683 55.3162 52.6923 54.7263 53.7634 53.6553C54.4744 52.9443 54.9553 52.0896 55.209 51.1841H56.8306C58.5782 51.1841 60 49.7623 60 48.0147V43.5813C59.9998 42.6468 59.7448 41.7299 59.2625 40.9296ZM49.3918 25.5953H50.4328V36.4405L49.3918 36.2334V25.5953ZM13.2568 52.4466C12.5087 53.1947 11.514 53.6067 10.4559 53.6067C9.39781 53.6067 8.40313 53.1947 7.65501 52.4466C6.4549 51.2465 6.18794 49.4618 6.85286 48.001C6.85825 47.9893 6.86341 47.9774 6.8688 47.9657C6.88907 47.9224 6.91052 47.8795 6.93243 47.8368C6.94275 47.8166 6.95306 47.7966 6.96384 47.7767C6.98364 47.7397 7.00427 47.7029 7.02536 47.6663C7.03989 47.6411 7.05478 47.6161 7.06989 47.5913C7.08946 47.5591 7.10927 47.527 7.12989 47.4952C7.14853 47.4665 7.16775 47.4381 7.1872 47.4099C7.20642 47.3819 7.22552 47.3538 7.24544 47.3262C7.26829 47.2947 7.29208 47.2638 7.31599 47.2328C7.33462 47.2087 7.35278 47.1843 7.372 47.1605C7.40013 47.1257 7.42954 47.0917 7.45884 47.0577C7.4756 47.0384 7.49165 47.0186 7.50876 46.9995C7.55235 46.9511 7.59724 46.9036 7.64341 46.8571C7.64739 46.8531 7.65102 46.8489 7.65501 46.8449C7.6638 46.8361 7.67306 46.8279 7.68196 46.8193C7.7211 46.7808 7.76048 46.7429 7.80067 46.7064C7.8111 46.6969 7.82212 46.6881 7.83266 46.6788C7.87274 46.6432 7.91305 46.608 7.9543 46.5743C7.95817 46.5712 7.96227 46.5683 7.96614 46.5651C9.41492 45.3926 11.5045 45.394 12.9515 46.5698C12.9532 46.5712 12.9549 46.5724 12.9567 46.5738C13.0008 46.6097 13.0441 46.6475 13.0871 46.6857C13.0948 46.6925 13.1028 46.6989 13.1104 46.7058C13.1601 46.7507 13.2089 46.797 13.2567 46.8448C13.3082 46.8964 13.3579 46.9495 13.4062 47.0033C13.4274 47.0269 13.4474 47.0512 13.468 47.0752C13.493 47.1045 13.5182 47.1339 13.5424 47.1638C13.5694 47.1974 13.5956 47.2316 13.6214 47.2659C13.6359 47.285 13.6503 47.3042 13.6644 47.3235C13.6956 47.3666 13.7261 47.4102 13.7555 47.4544C13.7606 47.4619 13.7655 47.4695 13.7704 47.477C14.7759 49.0128 14.6048 51.0985 13.2568 52.4466ZM52.5544 52.4466C51.8062 53.1947 50.8115 53.6067 49.7534 53.6067C48.6953 53.6067 47.7007 53.1947 46.9526 52.4466C45.6044 51.0985 45.4333 49.0124 46.4389 47.4768C46.4437 47.4694 46.4485 47.462 46.4534 47.4548C46.4828 47.4105 46.5134 47.3668 46.5448 47.3234C46.5588 47.3042 46.5731 47.2852 46.5875 47.2663C46.6134 47.2319 46.6396 47.1975 46.6669 47.1637C46.6909 47.134 46.7158 47.105 46.7408 47.0759C46.7615 47.0516 46.7818 47.027 46.8032 47.0033C46.8515 46.9495 46.9012 46.8965 46.9527 46.8449C47.7009 46.0968 48.6954 45.6848 49.7535 45.6848C50.8116 45.6848 51.8063 46.0968 52.5544 46.8449C52.606 46.8965 52.6557 46.9496 52.7039 47.0034C52.7253 47.027 52.7453 47.0514 52.7659 47.0756C52.791 47.1047 52.8161 47.134 52.8401 47.1638C52.8673 47.1975 52.8934 47.2318 52.9193 47.2661C52.9337 47.2852 52.9482 47.3043 52.9622 47.3236C52.9935 47.3669 53.0241 47.4104 53.0534 47.4545C53.0584 47.462 53.0633 47.4695 53.0683 47.477C54.0735 49.0127 53.9024 51.0986 52.5544 52.4466ZM58.2906 48.0147H58.2904C58.2904 48.8198 57.6354 49.4747 56.8303 49.4747H55.4231C55.3896 48.235 54.952 47.0522 54.1646 46.0825C54.1593 46.076 54.1542 46.0692 54.1488 46.0626C54.1001 46.0032 54.0496 45.9449 53.9983 45.887C53.9851 45.8723 53.9727 45.857 53.9595 45.8423C53.9051 45.7824 53.8489 45.7237 53.7917 45.6658C53.7819 45.656 53.773 45.6456 53.7632 45.6359C53.0268 44.8996 52.1236 44.3907 51.1389 44.1446C50.6912 44.0327 50.2268 43.9751 49.7534 43.9751C49.3748 43.9751 49.0018 44.0121 48.6385 44.084C47.5488 44.3001 46.547 44.8327 45.7437 45.6359C45.7341 45.6455 45.7253 45.6556 45.7158 45.6653C45.6584 45.7236 45.6019 45.7824 45.5474 45.8425C45.5345 45.8567 45.5226 45.8715 45.5099 45.8858C45.4581 45.9441 45.407 46.0029 45.3579 46.0629C45.353 46.0689 45.3485 46.0751 45.3435 46.0812C44.5555 47.0511 44.1174 48.2345 44.0838 49.4748H16.1255C16.0919 48.233 15.6529 47.0481 14.8628 46.0775C14.8592 46.0729 14.8557 46.0683 14.8521 46.0638C14.8005 46.0007 14.7469 45.939 14.6924 45.8778C14.6824 45.8665 14.673 45.8549 14.6628 45.8437C14.5989 45.7733 14.5333 45.7039 14.4655 45.636C14.1891 45.3597 13.891 45.1178 13.5768 44.9105C12.6339 44.2887 11.5449 43.9778 10.4559 43.9778C9.00383 43.9778 7.55165 44.5306 6.44622 45.636C6.38306 45.6992 6.32201 45.764 6.26224 45.8296C6.24455 45.8491 6.22755 45.8689 6.21009 45.8885C6.16791 45.9361 6.12642 45.9843 6.08599 46.0331C6.06806 46.0547 6.05013 46.0765 6.03255 46.0986C5.99072 46.1507 5.94994 46.2034 5.91009 46.2568C5.89767 46.2734 5.8849 46.2897 5.87283 46.3065C5.76572 46.4531 5.66634 46.6042 5.57447 46.7593C5.57189 46.7636 5.56943 46.7681 5.56685 46.7724C5.52197 46.8487 5.47896 46.926 5.43783 47.0042C5.43666 47.0064 5.43549 47.0088 5.4342 47.011C5.13619 47.5781 4.9358 48.1914 4.84393 48.8276L2.17991 47.6436C1.89421 47.5165 1.70964 47.2325 1.70964 46.9199V38.6418C1.70964 37.5823 2.46233 36.6558 3.49932 36.4385L4.7265 36.1815C7.18978 35.6655 9.43414 34.4539 11.217 32.6777C13.3405 30.5621 16.1607 29.3971 19.1582 29.3971H29.5351C31.7885 29.3971 33.9664 30.0639 35.8337 31.3251L41.4873 35.1444C42.6217 35.9109 44.3462 36.9729 46.2147 37.3446L54.0158 38.8959C55.4786 39.1869 56.7588 40.0863 57.5286 41.3636L57.7986 41.8117C58.1206 42.3458 58.2906 42.9577 58.2906 43.5813V48.0147Z" fill="#AA8453"/>
<path d="M12.2909 47.8106C11.8006 47.3204 11.149 47.0505 10.4558 47.0505C9.76267 47.0505 9.11099 47.3205 8.62091 47.8106C8.13084 48.3007 7.86084 48.9524 7.86084 49.6455C7.86084 50.3387 8.13084 50.9904 8.62091 51.4804C9.11099 51.9705 9.76267 52.2405 10.4559 52.2405C11.1491 52.2405 11.8008 51.9706 12.2909 51.4804C13.3027 50.4686 13.3027 48.8224 12.2909 47.8106ZM11.082 50.2717C10.9147 50.4389 10.6923 50.531 10.4558 50.531C10.2192 50.531 9.99692 50.4389 9.8297 50.2715C9.66247 50.1043 9.57025 49.882 9.57025 49.6454C9.57025 49.4088 9.66236 49.1865 9.8297 49.0193C9.99692 48.8521 10.2192 48.7598 10.4558 48.7598C10.6923 48.7598 10.9147 48.8519 11.082 49.0193C11.4272 49.3646 11.4272 49.9264 11.082 50.2717Z" fill="#AA8453"/>
<path d="M51.5885 47.8107C51.0984 47.3205 50.4467 47.0505 49.7535 47.0505C49.0603 47.0505 48.4087 47.3204 47.9184 47.8106C46.9067 48.8224 46.9067 50.4686 47.9184 51.4804C48.4086 51.9706 49.0603 52.2405 49.7535 52.2405C50.4467 52.2405 51.0983 51.9706 51.5884 51.4806C52.0786 50.9905 52.3484 50.3388 52.3484 49.6456C52.3484 48.9525 52.0786 48.3008 51.5885 47.8107ZM50.3796 50.2718C50.2124 50.439 49.9901 50.5311 49.7535 50.5311C49.517 50.5311 49.2946 50.439 49.1273 50.2718C48.7821 49.9265 48.7821 49.3647 49.1273 49.0195C49.2946 48.8523 49.517 48.7601 49.7535 48.7601C49.9901 48.7601 50.2124 48.8522 50.3797 49.0195C50.5469 49.1867 50.639 49.409 50.639 49.6456C50.639 49.882 50.547 50.1044 50.3796 50.2718Z" fill="#AA8453"/>
</svg>
