<svg width="46" height="58" viewBox="0 0 46 58" fill="none" xmlns="http://www.w3.org/2000/svg">
<path fill-rule="evenodd" clip-rule="evenodd" d="M0.609375 57.75V24C0.609375 21.2388 2.85279 19 5.61979 19V14C5.61979 12.62 6.74213 11.5 8.125 11.5H10.6302V1.5C10.6302 0.81 11.1901 0.25 11.8828 0.25C12.5755 0.25 13.1354 0.81 13.1354 1.5V11.5H15.6406C17.0235 11.5 18.1458 12.62 18.1458 14V19C20.9128 19 23.1562 21.2388 23.1562 24V34H31.9245V26.5H36.9349V22.75H44.4505V26.5H45.7031V57.75H0.609375ZM15.6406 15.25C15.6406 14.56 15.0807 14 14.388 14H9.3776C8.68491 14 8.125 14.56 8.125 15.25V19H15.6406V15.25ZM20.651 24C20.651 22.62 19.5287 21.5 18.1458 21.5H5.61979C4.23692 21.5 3.11458 22.62 3.11458 24V55.25H20.651V24ZM31.9245 36.5H23.1562V55.25H31.9245V36.5ZM43.1979 29H34.4297V55.25H43.1979V29ZM38.1875 32.75H39.4401C40.1328 32.75 40.6927 33.3088 40.6927 34V35.25C40.6927 35.9412 40.1328 36.5 39.4401 36.5H38.1875C37.4948 36.5 36.9349 35.9412 36.9349 35.25V34C36.9349 33.3088 37.4948 32.75 38.1875 32.75ZM38.1875 40.25H39.4401C40.1328 40.25 40.6927 40.8088 40.6927 41.5V42.75C40.6927 43.4412 40.1328 44 39.4401 44H38.1875C37.4948 44 36.9349 43.4412 36.9349 42.75V41.5C36.9349 40.8088 37.4948 40.25 38.1875 40.25ZM38.1875 47.75H39.4401C40.1328 47.75 40.6927 48.3088 40.6927 49V50.25C40.6927 50.9412 40.1328 51.5 39.4401 51.5H38.1875C37.4948 51.5 36.9349 50.9412 36.9349 50.25V49C36.9349 48.3088 37.4948 47.75 38.1875 47.75ZM26.9141 40.25H28.1667C28.8594 40.25 29.4193 40.8088 29.4193 41.5V42.75C29.4193 43.4412 28.8594 44 28.1667 44H26.9141C26.2214 44 25.6615 43.4412 25.6615 42.75V41.5C25.6615 40.8088 26.2214 40.25 26.9141 40.25ZM26.9141 47.75H28.1667C28.8594 47.75 29.4193 48.3088 29.4193 49V50.25C29.4193 50.9412 28.8594 51.5 28.1667 51.5H26.9141C26.2214 51.5 25.6615 50.9412 25.6615 50.25V49C25.6615 48.3088 26.2214 47.75 26.9141 47.75ZM15.6406 51.5H14.388C13.6953 51.5 13.1354 50.9412 13.1354 50.25V49C13.1354 48.31 13.6953 47.75 14.388 47.75H15.6406C16.3333 47.75 16.8932 48.31 16.8932 49V50.25C16.8932 50.9412 16.3333 51.5 15.6406 51.5ZM15.6406 44H14.388C13.6953 44 13.1354 43.4412 13.1354 42.75V41.5C13.1354 40.81 13.6953 40.25 14.388 40.25H15.6406C16.3333 40.25 16.8932 40.81 16.8932 41.5V42.75C16.8932 43.4412 16.3333 44 15.6406 44ZM15.6406 36.5H14.388C13.6953 36.5 13.1354 35.9412 13.1354 35.25V34C13.1354 33.31 13.6953 32.75 14.388 32.75H15.6406C16.3333 32.75 16.8932 33.31 16.8932 34V35.25C16.8932 35.9412 16.3333 36.5 15.6406 36.5ZM15.6406 29H14.388C13.6953 29 13.1354 28.4412 13.1354 27.75V26.5C13.1354 25.81 13.6953 25.25 14.388 25.25H15.6406C16.3333 25.25 16.8932 25.81 16.8932 26.5V27.75C16.8932 28.4412 16.3333 29 15.6406 29ZM9.3776 51.5H8.125C7.43231 51.5 6.8724 50.9412 6.8724 50.25V49C6.8724 48.3088 7.43231 47.75 8.125 47.75H9.3776C10.0703 47.75 10.6302 48.3088 10.6302 49V50.25C10.6302 50.9412 10.0703 51.5 9.3776 51.5ZM9.3776 44H8.125C7.43231 44 6.8724 43.4412 6.8724 42.75V41.5C6.8724 40.8088 7.43231 40.25 8.125 40.25H9.3776C10.0703 40.25 10.6302 40.8088 10.6302 41.5V42.75C10.6302 43.4412 10.0703 44 9.3776 44ZM9.3776 36.5H8.125C7.43231 36.5 6.8724 35.9412 6.8724 35.25V34C6.8724 33.31 7.43231 32.75 8.125 32.75H9.3776C10.0703 32.75 10.6302 33.31 10.6302 34V35.25C10.6302 35.9412 10.0703 36.5 9.3776 36.5ZM9.3776 29H8.125C7.43231 29 6.8724 28.4412 6.8724 27.75V26.5C6.8724 25.81 7.43231 25.25 8.125 25.25H9.3776C10.0703 25.25 10.6302 25.81 10.6302 26.5V27.75C10.6302 28.4412 10.0703 29 9.3776 29Z" fill="#AA8453"/>
</svg>
