<svg width="94" height="94" viewBox="0 0 94 94" fill="none" xmlns="http://www.w3.org/2000/svg">
<path d="M78.5727 14.9741H73.9845C73.2996 14.9741 72.8659 15.408 72.8659 15.8873H72.8657V30.7251C72.8657 31.3414 73.5962 31.6611 74.3495 31.6611C75.08 31.6611 75.8333 31.3416 75.8333 30.7251V25.4292H78.3902C81.4033 25.4292 83.7546 23.9909 83.7546 20.2473V20.1105C83.7546 16.3667 81.4718 14.9741 78.5727 14.9741ZM80.7868 20.4757C80.7868 22.2562 79.8738 23.1009 78.39 23.1009H75.8333V17.5766H78.39C79.8738 17.5766 80.7868 18.4213 80.7868 20.2017V20.4757Z" fill="#AA8453" fill-opacity="0.1"/>
<path d="M53.8052 20.7747C49.4717 16.4412 43.7102 14.0547 37.5817 14.0547C31.4532 14.0547 25.6916 16.4412 21.3581 20.7747C20.8351 21.2976 20.8351 22.1454 21.3581 22.6685C21.881 23.1914 22.7288 23.1914 23.2517 22.6685C27.0794 18.841 32.1684 16.7329 37.5815 16.7329C42.9946 16.7329 48.0837 18.841 51.9113 22.6685C52.1729 22.9299 52.5157 23.0607 52.8583 23.0607C53.2009 23.0607 53.5436 22.9299 53.8052 22.6685C54.3281 22.1456 54.3281 21.2976 53.8052 20.7747Z" fill="#AA8453" fill-opacity="0.1"/>
<path d="M48.2811 26.2994C42.3816 20.3999 32.7824 20.3999 26.883 26.2994C26.36 26.8223 26.36 27.6703 26.883 28.1932C27.4059 28.7161 28.2539 28.7161 28.7768 28.1932C33.6321 23.3381 41.5321 23.3381 46.3874 28.1932C46.6488 28.4546 46.9914 28.5854 47.3342 28.5854C47.6768 28.5854 48.0195 28.4546 48.2811 28.1932C48.804 27.6703 48.804 26.8223 48.2811 26.2994Z" fill="#AA8453" fill-opacity="0.1"/>
<path d="M42.8436 31.7362C39.9421 28.8347 35.221 28.8347 32.3195 31.7362C31.7965 32.2591 31.7965 33.1069 32.3195 33.6299C32.8424 34.153 33.6904 34.1528 34.2133 33.6299C36.0707 31.7727 39.0927 31.7727 40.9501 33.6299C41.2115 33.8916 41.5543 34.0221 41.8969 34.0221C42.2394 34.0221 42.5822 33.8914 42.8436 33.6299C43.3667 33.1069 43.3667 32.2592 42.8436 31.7362Z" fill="#AA8453" fill-opacity="0.1"/>
<path d="M65.8956 57.8169C65.3161 57.498 64.7444 57.1488 64.1966 56.7786L55.3391 50.795C52.651 48.9789 49.5152 48.019 46.2711 48.019H30.0138C25.6984 48.019 21.6381 49.6965 18.5805 52.7423C17.009 54.3082 15.2186 55.618 13.2591 56.6354C12.1002 57.2373 11.3804 58.4216 11.3804 59.7264C11.3804 61.6479 12.9435 63.211 14.865 63.211H20.4076C21.1472 63.211 21.7468 62.6114 21.7468 61.8719C21.7468 61.1324 21.1472 60.5327 20.4076 60.5327H14.865C14.4203 60.5327 14.0584 60.1709 14.0584 59.7262C14.0584 59.4249 14.225 59.1514 14.4932 59.0122C16.6947 57.8692 18.7059 56.3979 20.4706 54.6396C23.0226 52.0972 26.4117 50.6971 30.0136 50.6971H33.6533V60.5327H29.2045C28.465 60.5327 27.8654 61.1324 27.8654 61.8719C27.8654 62.6114 28.465 63.211 29.2045 63.211H65.9227C67.0236 63.211 67.9191 62.3154 67.9191 61.2146C67.9191 59.805 67.1436 58.5029 65.8956 57.8169ZM36.3319 60.5329V50.6973H46.2713C48.9791 50.6973 51.5964 51.4985 53.8401 53.0142L62.6976 58.9979C63.3126 59.4134 63.9543 59.8055 64.6053 60.1635C64.7738 60.2563 64.915 60.3837 65.0211 60.5329H36.3319Z" fill="#AA8453" fill-opacity="0.1"/>
<path d="M39.6498 65.2468H35.5134C34.7739 65.2468 34.1743 65.8464 34.1743 66.586C34.1743 67.3255 34.7739 67.9251 35.5134 67.9251H39.6498C40.3893 67.9251 40.9889 67.3255 40.9889 66.586C40.9889 65.8464 40.3893 65.2468 39.6498 65.2468Z" fill="#AA8453" fill-opacity="0.1"/>
<path d="M92.8447 64.1227L92.4217 63.4207C90.8275 60.7753 88.1759 58.9125 85.1468 58.31L81.6895 57.6224V40.099H90.6364C92.4786 40.099 93.9771 38.6004 93.9771 36.7584V10.6788C93.9771 8.83662 92.4784 7.33813 90.6364 7.33813H64.5568C62.7146 7.33813 61.2162 8.8368 61.2162 10.6788V20.5717C61.2162 21.3112 61.8156 21.9108 62.5553 21.9108C63.295 21.9108 63.8944 21.3112 63.8944 20.5717V10.6788C63.8944 10.3134 64.1917 10.0162 64.557 10.0162H90.6368C91.0021 10.0162 91.2993 10.3134 91.2993 10.6788V36.7586C91.2993 37.1239 91.0021 37.4211 90.6368 37.4211H64.5568C64.1915 37.4211 63.8942 37.1239 63.8942 36.7586V29.2773C63.8942 28.5378 63.2948 27.9382 62.5551 27.9382C61.8154 27.9382 61.216 28.5378 61.216 29.2773V36.7586C61.216 38.6007 62.7146 40.0992 64.5566 40.0992H74.7022V56.2332L72.925 55.8798C70.4722 55.392 68.0809 53.9116 66.4954 52.8404L57.6381 46.8569C54.2683 44.5805 50.3377 43.3773 46.2711 43.3773H30.014C24.6044 43.3773 19.5147 45.48 15.6825 49.2978C13.2576 51.7137 10.2052 53.3614 6.85518 54.0631L4.93259 54.4657C2.07442 55.0642 0 57.6184 0 60.5386V73.5076C0 75.0546 0.913375 76.4604 2.32723 77.0886L7.66097 79.4592C7.98354 81.1458 8.79613 82.7565 10.0993 84.0596C11.8311 85.7915 14.106 86.6575 16.3811 86.6575C18.6562 86.6575 20.9309 85.7915 22.6629 84.0596C23.7768 82.9458 24.5302 81.6068 24.9277 80.1882H69.4006C69.798 81.6068 70.5517 82.9458 71.6655 84.0596C73.3436 85.7375 75.5742 86.6617 77.9474 86.6617C80.3203 86.6617 82.5513 85.7377 84.2294 84.0596C85.3432 82.9458 86.0967 81.6068 86.4942 80.1882H89.0345C91.7725 80.1882 94 77.9607 94 75.2228V68.2771C93.9996 66.8131 93.6001 65.3767 92.8447 64.1227ZM77.3804 40.099H79.0115V57.0898L77.3804 56.7654V40.099ZM20.769 82.1661C19.5969 83.3381 18.0386 83.9836 16.3809 83.9836C14.7232 83.9836 13.1649 83.3381 11.9928 82.1661C10.1127 80.2859 9.69445 77.49 10.7362 75.2013C10.7446 75.1829 10.7527 75.1644 10.7611 75.146C10.7929 75.0781 10.8265 75.0109 10.8608 74.9441C10.877 74.9125 10.8931 74.8811 10.91 74.8499C10.941 74.7919 10.9734 74.7342 11.0064 74.6769C11.0292 74.6375 11.0525 74.5984 11.0762 74.5594C11.1068 74.5089 11.1379 74.4586 11.1702 74.4089C11.1994 74.3639 11.2295 74.3195 11.2599 74.2752C11.2901 74.2314 11.32 74.1873 11.3512 74.1442C11.387 74.0948 11.4243 74.0463 11.4617 73.9978C11.4909 73.96 11.5194 73.9218 11.5495 73.8846C11.5935 73.83 11.6396 73.7768 11.6855 73.7235C11.7118 73.6932 11.7369 73.6622 11.7637 73.6323C11.832 73.5565 11.9023 73.4821 11.9747 73.4092C11.9809 73.403 11.9866 73.3964 11.9928 73.3901C12.0066 73.3764 12.0211 73.3635 12.0351 73.3499C12.0964 73.2897 12.1581 73.2302 12.2211 73.1731C12.2374 73.1583 12.2547 73.1445 12.2712 73.1298C12.334 73.0742 12.3971 73.0189 12.4617 72.9662C12.4678 72.9613 12.4742 72.9567 12.4803 72.9517C14.75 71.1149 18.0237 71.1171 20.2907 72.9591C20.2933 72.9613 20.296 72.9631 20.2988 72.9653C20.368 73.0217 20.4357 73.0808 20.5031 73.1406C20.5152 73.1513 20.5277 73.1614 20.5397 73.1722C20.6175 73.2425 20.6939 73.315 20.7688 73.39C20.8496 73.4707 20.9274 73.5539 21.003 73.6382C21.0363 73.6753 21.0677 73.7133 21.0998 73.7509C21.1391 73.7968 21.1786 73.8429 21.2164 73.8897C21.2588 73.9424 21.2997 73.996 21.3401 74.0496C21.3629 74.0795 21.3855 74.1096 21.4075 74.1399C21.4565 74.2075 21.5043 74.2758 21.5503 74.345C21.5582 74.3568 21.5659 74.3687 21.5737 74.3804C23.1489 76.7864 22.8808 80.054 20.769 82.1661ZM82.3352 82.1661C81.163 83.3381 79.6047 83.9836 77.947 83.9836C76.2893 83.9836 74.7312 83.3381 73.5591 82.1661C71.4469 80.054 71.1788 76.7859 72.7542 74.3801C72.7618 74.3685 72.7693 74.3569 72.777 74.3456C72.8231 74.2762 72.871 74.2077 72.9202 74.1397C72.9421 74.1096 72.9645 74.0799 72.987 74.0503C73.0276 73.9964 73.0687 73.9426 73.1115 73.8895C73.1492 73.8431 73.1881 73.7975 73.2272 73.752C73.2597 73.714 73.2914 73.6754 73.325 73.6382C73.4007 73.5539 73.4785 73.4709 73.5593 73.3901C74.7314 72.2181 76.2895 71.5726 77.9472 71.5726C79.6048 71.5726 81.1632 72.2181 82.3352 73.3901C82.416 73.4709 82.4939 73.5541 82.5695 73.6384C82.6029 73.6754 82.6343 73.7136 82.6666 73.7514C82.7059 73.7972 82.7452 73.8431 82.7828 73.8897C82.8254 73.9426 82.8664 73.9962 82.9069 74.05C82.9295 74.0799 82.9521 74.1098 82.9741 74.1401C83.0232 74.2079 83.0711 74.276 83.117 74.3452C83.1249 74.3569 83.1326 74.3687 83.1403 74.3804C84.7152 76.7862 84.4471 80.0542 82.3352 82.1661ZM91.3219 75.2228H91.3216C91.3216 76.484 90.2955 77.5101 89.0342 77.5101H86.8296C86.7771 75.5679 86.0915 73.7149 84.8578 72.1957C84.8495 72.1854 84.8416 72.1748 84.8332 72.1645C84.7568 72.0714 84.6777 71.9801 84.5973 71.8895C84.5767 71.8663 84.5573 71.8424 84.5365 71.8193C84.4513 71.7255 84.3632 71.6335 84.2736 71.5428C84.2584 71.5274 84.2444 71.5112 84.229 71.496C83.0753 70.3425 81.6603 69.5451 80.1176 69.1596C79.4163 68.9843 78.6887 68.8941 77.947 68.8941C77.3538 68.8941 76.7694 68.952 76.2003 69.0647C74.4931 69.4032 72.9237 70.2377 71.6652 71.496C71.6501 71.5111 71.6363 71.5268 71.6215 71.5421C71.5315 71.6333 71.443 71.7255 71.3577 71.8197C71.3375 71.8419 71.3187 71.865 71.2989 71.8874C71.2178 71.9789 71.1377 72.071 71.0608 72.165C71.0531 72.1744 71.0459 72.1841 71.0382 72.1937C69.8035 73.7131 69.1173 75.5672 69.0646 77.5103H25.2633C25.2106 75.5648 24.5229 73.7085 23.2851 72.1878C23.2794 72.1806 23.2739 72.1735 23.2682 72.1663C23.1874 72.0675 23.1035 71.9708 23.0182 71.8749C23.0024 71.8573 22.9877 71.8391 22.9717 71.8215C22.8717 71.7112 22.7688 71.6025 22.6625 71.4962C22.2296 71.0633 21.7626 70.6843 21.2704 70.3596C19.7932 69.3854 18.087 68.8983 16.3809 68.8983C14.106 68.8983 11.8309 69.7644 10.0991 71.4962C10.0001 71.5951 9.90448 71.6967 9.81084 71.7995C9.78312 71.83 9.7565 71.861 9.72915 71.8916C9.66305 71.9664 9.59806 72.0418 9.53472 72.1182C9.50663 72.1522 9.47854 72.1863 9.451 72.2208C9.38546 72.3025 9.32157 72.3851 9.25915 72.4687C9.23969 72.4948 9.21968 72.5203 9.20077 72.5465C9.03296 72.7762 8.87727 73.013 8.73334 73.2559C8.7293 73.2627 8.72544 73.2697 8.7214 73.2765C8.65109 73.396 8.58371 73.5172 8.51927 73.6396C8.51743 73.6431 8.5156 73.6468 8.51358 73.6503C8.0467 74.5387 7.73275 75.4996 7.58882 76.4963L3.4152 74.6413C2.9676 74.4423 2.67844 73.9973 2.67844 73.5076V60.5386C2.67844 58.8788 3.85766 57.4271 5.48227 57.0867L7.40486 56.6841C11.264 55.8757 14.7802 53.9776 17.5733 51.1948C20.9 47.8804 25.3184 46.0551 30.0145 46.0551H46.2717C49.802 46.0551 53.2141 47.0998 56.1394 49.0758L64.9967 55.0593C66.7741 56.2602 69.4756 57.9239 72.403 58.5062L84.6248 60.9366C86.9164 61.3925 88.9222 62.8016 90.1282 64.8028L90.5512 65.5048C91.0555 66.3414 91.3219 67.3002 91.3219 68.2771V75.2228Z" fill="#AA8453" fill-opacity="0.1"/>
<path d="M19.2558 74.9034C18.4876 74.1355 17.4669 73.7126 16.3809 73.7126C15.295 73.7126 14.274 74.1356 13.5062 74.9034C12.7384 75.6712 12.3154 76.6922 12.3154 77.7781C12.3154 78.8641 12.7384 79.885 13.5062 80.6528C14.274 81.4206 15.295 81.8436 16.3811 81.8436C17.467 81.8436 18.488 81.4208 19.2558 80.6528C20.8409 79.0677 20.8409 76.4886 19.2558 74.9034ZM17.3619 78.7591C17.0999 79.0211 16.7514 79.1654 16.3809 79.1654C16.0102 79.1654 15.662 79.0211 15.4 78.7589C15.138 78.4969 14.9935 78.1486 14.9935 77.7779C14.9935 77.4073 15.1378 77.059 15.4 76.797C15.662 76.535 16.0102 76.3905 16.3809 76.3905C16.7514 76.3905 17.0999 76.5348 17.3619 76.797C17.9027 77.3381 17.9027 78.2182 17.3619 78.7591Z" fill="#AA8453" fill-opacity="0.1"/>
<path d="M80.8218 74.9036C80.054 74.1356 79.033 73.7126 77.9469 73.7126C76.8609 73.7126 75.8402 74.1355 75.072 74.9034C73.4871 76.4886 73.4871 79.0677 75.072 80.6528C75.84 81.4208 76.8609 81.8436 77.9469 81.8436C79.033 81.8436 80.0538 81.4208 80.8216 80.653C81.5896 79.8852 82.0124 78.8643 82.0124 77.7783C82.0124 76.6924 81.5896 75.6714 80.8218 74.9036ZM78.9278 78.7593C78.6659 79.0212 78.3176 79.1655 77.9469 79.1655C77.5764 79.1655 77.228 79.0212 76.966 78.7593C76.4251 78.2184 76.4251 77.3382 76.966 76.7974C77.228 76.5354 77.5764 76.3909 77.9469 76.3909C78.3176 76.3909 78.6659 76.5352 78.928 76.7974C79.19 77.0594 79.3343 77.4076 79.3343 77.7783C79.3343 78.1486 79.1902 78.4971 78.9278 78.7593Z" fill="#AA8453" fill-opacity="0.1"/>
</svg>
