<svg width="60" height="60" viewBox="0 0 60 60" fill="none" xmlns="http://www.w3.org/2000/svg">
	<path d="M59.994 17.0084C59.997 13.0862 57.1554 9.74058 53.2845 9.10859C49.4136 8.47661 45.6555 10.7447 44.4107 14.4641C43.166 18.1834 44.8018 22.2568 48.2734 24.082C47.8312 24.3598 47.4217 24.6864 47.0527 25.0557C45.9726 26.1247 45.2767 27.521 45.073 29.0269C44.5074 28.3837 43.694 28.0124 42.8374 28.006H39.998V21.0075C39.9928 17.8925 37.932 15.1551 34.94 14.2888C37.6219 12.1826 38.6735 8.60772 37.5593 5.38476C36.4452 2.16203 33.41 0 30 0C26.5899 0 23.5547 2.16203 22.4405 5.38499C21.3263 8.60795 22.3779 12.1829 25.0598 14.289C22.0678 15.1553 20.007 17.8928 20.0019 21.0077V28.0063H17.1624C16.3061 28.0127 15.4933 28.384 14.9278 29.0271C14.6418 26.9882 13.4712 25.1793 11.7284 24.0831C14.9865 22.3724 16.6569 18.6596 15.776 15.0867C14.895 11.5139 11.69 9.00303 8.01008 9.00303C4.33018 9.00303 1.12538 11.5137 0.244424 15.0866C-0.636535 18.6594 1.034 22.3723 4.29199 24.083C2.25051 25.3603 1.00916 27.5976 1.00564 30.0058V44.0031C1.00388 45.8977 1.90464 47.6799 3.43118 48.8021L0.417828 54.0271C0.146358 54.4852 0.00400302 55.0082 0.00587765 55.5407V57.0005C0.00587765 58.6569 1.34882 59.9999 3.00529 59.9999H56.9946C58.6511 59.9999 59.994 58.6569 59.994 57.0005V55.5407C59.9978 55.014 59.8597 54.496 59.5942 54.041L56.5698 48.802C58.0955 47.6792 58.9958 45.8973 58.9943 44.003V30.0059C58.9908 27.599 57.7507 25.3628 55.711 24.0851C58.3423 22.7048 59.9916 19.9798 59.994 17.0084ZM24.0011 8.01018C24.0011 4.69712 26.6869 2.01136 30 2.01136C33.313 2.01136 35.9988 4.69712 35.9988 8.01018C35.9988 11.3232 33.313 14.009 30 14.009C26.6883 14.0057 24.0044 11.3218 24.0011 8.01018ZM22.0015 21.0077C22.0048 18.2482 24.241 16.012 27.0006 16.0086H32.9994C35.7588 16.0119 37.995 18.2481 37.9984 21.0077V28.0063H35.9988V21.0077C35.9988 20.4555 35.5511 20.0079 34.999 20.0079C34.4468 20.0079 33.9993 20.4556 33.9993 21.0077V28.0063H26.0008V21.0077C26.0008 20.4555 25.5531 20.0079 25.001 20.0079C24.4489 20.0079 24.0013 20.4556 24.0013 21.0077V28.0063H22.0016L22.0015 21.0077ZM16.2867 30.5057C16.467 30.1933 16.8017 30.0023 17.1625 30.0058H42.8374C43.1975 30.003 43.5313 30.1938 43.7112 30.5057L45.9028 34.305L45.5029 35.0049H40.179C38.3485 34.981 36.7905 36.3319 36.5547 38.1472C36.4537 39.1323 36.7748 40.114 37.4384 40.849C38.1019 41.584 39.0459 42.0036 40.036 42.0034H47.0557C48.0476 42.0009 49.0084 41.6573 49.7772 41.0306L57.2597 54.0011H2.74038L10.2228 41.0306C10.9917 41.6573 11.9524 42.0007 12.9443 42.0034H19.964C20.9543 42.0036 21.8982 41.584 22.5617 40.849C23.2252 40.114 23.5463 39.1322 23.4453 38.1472C23.2096 36.3319 21.6514 34.981 19.8211 35.0049H14.4971L14.0972 34.305L16.2867 30.5057ZM2.00552 17.0084C2.00552 13.6953 4.69128 11.0096 8.00434 11.0096C11.3174 11.0096 14.0032 13.6953 14.0032 17.0084C14.0032 20.3215 11.3174 23.0072 8.00434 23.0072C4.69257 23.0039 2.0088 20.3201 2.00552 17.0084ZM3.00529 44.0031V30.0059C3.00857 27.2465 5.24477 25.0103 8.00434 25.0069C10.7632 25.0118 12.9984 27.247 13.0034 30.0059V32.2054L12.9484 32.3005L11.5037 29.7699C11.2232 29.305 10.623 29.149 10.1516 29.4183C9.68014 29.6877 9.5099 30.2841 9.76813 30.7617L12.7596 35.9968C13.1158 36.6203 13.779 37.0051 14.4972 37.0046H19.8212C20.6268 36.9738 21.3285 37.5493 21.4559 38.3453C21.5016 38.77 21.3633 39.1941 21.0759 39.5101C20.7933 39.8265 20.3884 40.0065 19.9641 40.0039H12.9443C12.1105 40.0026 11.3408 39.5562 10.9257 38.8331L7.23539 32.3744C6.9549 31.9095 6.35466 31.7534 5.88331 32.0228C5.41196 32.2921 5.2416 32.8885 5.49983 33.3662L8.89912 39.3211L4.43903 47.0565C3.53053 46.3028 3.00505 45.1835 3.00529 44.0031ZM56.9946 58.0004H3.00529C2.45309 58.0004 2.00552 57.5527 2.00552 57.0006V56.0008H57.9945V57.0006C57.9944 57.5527 57.5468 58.0004 56.9946 58.0004ZM56.9946 30.0059V44.0032C56.9949 45.1836 56.4694 46.3029 55.5609 47.0566L51.0958 39.3212L54.4951 33.3663C54.7532 32.8886 54.5829 32.2923 54.1116 32.0229C53.6402 31.7535 53.0399 31.9096 52.7595 32.3745L49.0692 38.8332C48.655 39.5548 47.8876 40.001 47.0556 40.004H40.0359C39.6117 40.0065 39.2067 39.8266 38.9241 39.5102C38.6367 39.1941 38.4985 38.7702 38.5442 38.3454C38.6715 37.5494 39.3732 36.9738 40.1789 37.0047H45.5028C46.2201 37.0047 46.8823 36.6206 47.2385 35.9979L50.2299 30.762C50.488 30.2843 50.3178 29.6879 49.8464 29.4186C49.375 29.1492 48.7747 29.3053 48.4944 29.7702L47.0516 32.2957L46.9966 32.2057V30.0062C47.0016 27.2473 49.2368 25.0121 51.9957 25.0071C54.7552 25.0101 56.9914 27.2463 56.9946 30.0059ZM51.9956 23.0072C48.6825 23.0072 45.9968 20.3215 45.9968 17.0084C45.9968 13.6953 48.6825 11.0096 51.9956 11.0096C55.3086 11.0096 57.9944 13.6953 57.9944 17.0084C57.9911 20.3201 55.3074 23.0039 51.9956 23.0072Z" fill="#AA8453"/>
</svg>