<svg width="60" height="60" viewBox="0 0 60 60" fill="none" xmlns="http://www.w3.org/2000/svg">
<g clip-path="url(#clip0_2057_88)">
<path d="M57 20H55.94C55.321 11.092 46.553 4 35.833 4H34.816C34.9344 3.67974 34.9967 3.34144 35 3C35 2.20435 34.6839 1.44129 34.1213 0.87868C33.5587 0.31607 32.7957 0 32 0C31.2044 0 30.4413 0.31607 29.8787 0.87868C29.3161 1.44129 29 2.20435 29 3C29.0033 3.34144 29.0656 3.67974 29.184 4H28.167C17.447 4 8.679 11.092 8.06 20H7C6.20435 20 5.44129 20.3161 4.87868 20.8787C4.31607 21.4413 4 22.2044 4 23C4 23.7956 4.31607 24.5587 4.87868 25.1213C5.44129 25.6839 6.20435 26 7 26H18.1C18.0398 26.2183 18.0078 26.4435 18.005 26.67V30C18.1623 32.7701 17.4531 35.5204 15.976 37.869C15.711 38.375 15.423 38.928 15.111 39.552C14.3648 41.0258 13.7942 42.5821 13.411 44.189C12.8527 43.8901 12.2147 43.7738 11.5868 43.8564C10.959 43.9391 10.3729 44.2167 9.911 44.65C5.553 48.808 2.981 50.24 1.835 50.725C1.29097 50.9521 0.826373 51.3353 0.499806 51.8261C0.173239 52.3169 -0.000672834 52.8935 1.95624e-06 53.483V57C1.95624e-06 57.7957 0.316072 58.5587 0.878682 59.1213C1.44129 59.6839 2.20435 60 3 60H17.3C17.9811 60.0001 18.642 59.7684 19.174 59.343L21.88 57.177C22.1916 56.9302 22.4505 56.6234 22.6413 56.2747C22.8322 55.926 22.9511 55.5425 22.991 55.147C23.0309 54.7515 22.991 54.3521 22.8737 53.9723C22.7564 53.5925 22.564 53.2401 22.308 52.936C24.4669 50.6168 26.9993 48.6759 29.8 47.194C30.3774 46.9058 30.8925 46.5069 31.316 46.02C33.9814 42.925 36.9814 40.1347 40.261 37.7C41.2996 36.9492 42.0062 35.8245 42.232 34.563C43.239 29.263 45.637 26.685 46.374 25.997H57C57.7957 25.997 58.5587 25.6809 59.1213 25.1183C59.6839 24.5557 60 23.7926 60 22.997C60 22.2014 59.6839 21.4383 59.1213 20.8757C58.5587 20.3131 57.7957 19.997 57 19.997V20ZM31 3C31 2.80222 31.0587 2.60888 31.1685 2.44443C31.2784 2.27998 31.4346 2.15181 31.6173 2.07612C31.8 2.00043 32.0011 1.98063 32.1951 2.01921C32.3891 2.0578 32.5673 2.15304 32.7071 2.29289C32.847 2.43275 32.9422 2.61093 32.9808 2.80491C33.0194 2.99889 32.9996 3.19996 32.9239 3.38268C32.8482 3.56541 32.72 3.72159 32.5556 3.83147C32.3911 3.94135 32.1978 4 32 4C31.7348 4 31.4804 3.89464 31.2929 3.70711C31.1054 3.51957 31 3.26522 31 3ZM28.167 6H35.833C45.442 6 53.311 12.2 53.939 20H10.061C10.689 12.2 18.558 6 28.167 6ZM20.63 55.614L17.923 57.781C17.7461 57.9224 17.5265 57.9997 17.3 58H3C2.73479 58 2.48043 57.8946 2.2929 57.7071C2.10536 57.5196 2 57.2652 2 57V53.483C1.99923 53.2877 2.05626 53.0965 2.16391 52.9335C2.27157 52.7705 2.42504 52.643 2.605 52.567C4.158 51.911 6.924 50.257 11.282 46.099C11.4721 45.918 11.7246 45.8174 11.987 45.818C12.1168 45.8175 12.2455 45.8425 12.3656 45.8918C12.4857 45.941 12.5949 46.0135 12.687 46.105L20.711 54.128C20.8103 54.2275 20.8874 54.3468 20.9375 54.4781C20.9875 54.6094 21.0094 54.7497 21.0015 54.89C20.9937 55.0303 20.9564 55.1674 20.892 55.2923C20.8277 55.4172 20.7377 55.5272 20.628 55.615L20.63 55.614ZM40.268 34.194C40.1355 34.9512 39.7143 35.6273 39.093 36.08C35.6882 38.6012 32.5735 41.4922 29.806 44.7C29.5544 44.9897 29.2487 45.2275 28.906 45.4C25.923 46.9759 23.2231 49.0375 20.917 51.5L15.141 45.724C15.4541 43.8854 16.0474 42.1057 16.9 40.447C17.206 39.834 17.489 39.291 17.749 38.794C19.3761 36.1598 20.1614 33.092 20 30V26.67C20.0003 26.4924 20.0709 26.3221 20.1965 26.1965C20.3221 26.0709 20.4924 26.0003 20.67 26C21.1321 26.0008 21.5802 26.1584 21.941 26.447C22.2967 26.7303 22.5407 27.1302 22.63 27.576C22.8618 28.703 22.9857 29.8495 23 31C22.9674 32.4139 22.8405 33.824 22.62 35.221C22.5385 35.8164 22.5854 36.4223 22.7576 36.998C22.9298 37.5737 23.2233 38.1058 23.6184 38.5586C24.0135 39.0114 24.501 39.3743 25.048 39.6229C25.5951 39.8716 26.1891 40.0001 26.79 40C27.811 39.9994 28.7976 39.6309 29.569 38.962L35.899 33.412C36.4954 32.892 36.9581 32.2362 37.248 31.5C38.429 28.565 39.887 26.529 41.178 26H43.7C41.9358 28.4281 40.7608 31.2334 40.268 34.194ZM35.939 26H38.084C36.9537 27.4458 36.0454 29.0522 35.389 30.766C35.2164 31.2066 34.939 31.5986 34.581 31.908L32.415 33.808C32.631 32.976 32.828 32.108 32.986 31.166C33.3293 29.1493 34.3755 27.3192 35.939 26ZM31.014 30.834C30.7264 32.7727 30.1805 34.6641 29.391 36.458L28.256 37.458C27.8045 37.8301 27.2275 38.015 26.6438 37.9746C26.0601 37.9343 25.514 37.6717 25.118 37.241C24.9115 37.0051 24.7583 36.7275 24.6689 36.427C24.5795 36.1266 24.556 35.8104 24.6 35.5C24.8346 34.0107 24.9683 32.5073 25 31C24.9852 29.7176 24.8482 28.4395 24.591 27.183C24.5049 26.7665 24.3512 26.3669 24.136 26H33.19C32.0638 27.3991 31.3146 29.0633 31.014 30.834ZM57 24H7C6.73479 24 6.48043 23.8946 6.2929 23.7071C6.10536 23.5196 6 23.2652 6 23C6 22.7348 6.10536 22.4804 6.2929 22.2929C6.48043 22.1054 6.73479 22 7 22H57C57.2652 22 57.5196 22.1054 57.7071 22.2929C57.8947 22.4804 58 22.7348 58 23C58 23.2652 57.8947 23.5196 57.7071 23.7071C57.5196 23.8946 57.2652 24 57 24Z" fill="#AA8453"/>
<path d="M27.9912 8C21.3552 8.057 15.5102 11.306 13.1012 16.276C12.9855 16.5147 12.9693 16.7896 13.0562 17.0402C13.1431 17.2909 13.326 17.4967 13.5647 17.6125C13.8034 17.7283 14.0783 17.7445 14.329 17.6575C14.5796 17.5706 14.7855 17.3877 14.9012 17.149C16.9512 12.923 22.2192 10.049 28.0112 10C28.2759 9.9971 28.5287 9.88936 28.7141 9.70041C28.8995 9.51146 29.0024 9.2567 29.0002 8.992C28.995 8.7276 28.8865 8.47575 28.6979 8.29035C28.5094 8.10495 28.2557 8.00073 27.9912 8Z" fill="#AA8453"/>
</g>
<defs>
<clipPath id="clip0_2057_88">
<rect width="60" height="60" fill="white"/>
</clipPath>
</defs>
</svg>
