<svg width="55" height="52" viewBox="0 0 55 52" fill="none" xmlns="http://www.w3.org/2000/svg">
<path d="M3.38328 6.50006C3.47079 6.50031 3.55748 6.48332 3.6384 6.45007C3.71931 6.41683 3.79286 6.36798 3.85482 6.30632C3.91678 6.24466 3.96594 6.1714 3.99949 6.09075C4.03303 6.0101 4.0503 5.92363 4.05029 5.83631C4.03891 5.31981 4.13103 4.80625 4.32123 4.32575C4.51143 3.84526 4.79589 3.40752 5.15792 3.03822C5.51994 2.66891 5.95223 2.37549 6.42943 2.17517C6.90663 1.97484 7.41911 1.87165 7.93681 1.87165C8.45451 1.87165 8.967 1.97484 9.4442 2.17517C9.92139 2.37549 10.3537 2.66891 10.7157 3.03822C11.0777 3.40752 11.3622 3.84526 11.5524 4.32575C11.7426 4.80625 11.8347 5.31981 11.8233 5.83631V35.2776C11.8185 35.3678 11.8322 35.4581 11.8635 35.5429C11.8948 35.6277 11.9431 35.7053 12.0054 35.7709C12.0677 35.8365 12.1428 35.8887 12.226 35.9244C12.3092 35.9601 12.3988 35.9785 12.4894 35.9785C12.58 35.9785 12.6696 35.9601 12.7528 35.9244C12.836 35.8887 12.9111 35.8365 12.9734 35.7709C13.0357 35.7053 13.084 35.6277 13.1153 35.5429C13.1466 35.4581 13.1603 35.3678 13.1555 35.2776V29.6863H33.6337V35.2776C33.6289 35.3678 33.6425 35.4581 33.6738 35.5429C33.7051 35.6277 33.7534 35.7053 33.8157 35.7709C33.8781 35.8365 33.9531 35.8887 34.0363 35.9244C34.1195 35.9601 34.2092 35.9785 34.2997 35.9785C34.3903 35.9785 34.4799 35.9601 34.5632 35.9244C34.6464 35.8887 34.7214 35.8365 34.7837 35.7709C34.8461 35.7053 34.8944 35.6277 34.9257 35.5429C34.957 35.4581 34.9706 35.3678 34.9658 35.2776V5.82881C34.9658 4.44736 34.4159 3.1225 33.437 2.14567C32.4582 1.16884 31.1305 0.620061 29.7462 0.620061C28.3619 0.620061 27.0343 1.16884 26.0554 2.14567C25.0765 3.1225 24.5266 4.44736 24.5266 5.82881C24.5357 5.99899 24.6098 6.15922 24.7337 6.27649C24.8576 6.39375 25.0219 6.45912 25.1927 6.45912C25.3635 6.45912 25.5277 6.39375 25.6517 6.27649C25.7756 6.15922 25.8497 5.99899 25.8588 5.82881C25.8588 5.31936 25.9593 4.81491 26.1547 4.34424C26.35 3.87357 26.6364 3.44591 26.9974 3.08568C27.3584 2.72545 27.7869 2.43969 28.2586 2.24474C28.7302 2.04978 29.2357 1.94944 29.7462 1.94944C30.2567 1.94944 30.7622 2.04978 31.2339 2.24474C31.7055 2.43969 32.1341 2.72545 32.4951 3.08568C32.856 3.44591 33.1424 3.87357 33.3378 4.34424C33.5331 4.81491 33.6337 5.31936 33.6337 5.82881V17.6169H13.1536V5.82881C13.1668 5.1366 13.0415 4.44871 12.7852 3.80536C12.5288 3.16202 12.1465 2.57613 11.6606 2.08195C11.1747 1.58777 10.5949 1.19522 9.95524 0.927242C9.31554 0.659264 8.62872 0.52124 7.93493 0.52124C7.24115 0.52124 6.55433 0.659264 5.91463 0.927242C5.27492 1.19522 4.69517 1.58777 4.20927 2.08195C3.72337 2.57613 3.34107 3.16202 3.08472 3.80536C2.82836 4.44871 2.70311 5.1366 2.71627 5.82881C2.71502 5.91683 2.73138 6.00422 2.76438 6.08585C2.79739 6.16749 2.84639 6.24173 2.9085 6.30424C2.97061 6.36675 3.0446 6.41626 3.12612 6.44989C3.20764 6.48351 3.29507 6.50057 3.38328 6.50006ZM13.1536 18.9538H33.6337V28.3644H13.1536V18.9538Z" fill="#AA8453"/>
<path d="M1.50443 43.6624C2.86837 43.6286 4.19972 43.2392 5.36621 42.533C6.5327 41.8268 7.49375 40.8283 8.15387 39.6368C8.82521 40.8277 9.79453 41.8247 10.9672 42.5302C12.1399 43.2358 13.4758 43.6259 14.8447 43.6624C16.1563 43.6367 17.4398 43.2777 18.5737 42.6193C19.7077 41.9608 20.6546 41.0246 21.325 39.8993C22.0063 41.024 22.9614 41.9587 24.1016 42.6166C25.2417 43.2745 26.53 43.6342 27.8467 43.6624C29.1997 43.6296 30.5209 43.2458 31.6802 42.5489C32.8396 41.8519 33.7971 40.8657 34.4586 39.6874C35.1309 40.8654 36.0966 41.8503 37.2622 42.5466C38.4277 43.243 39.7537 43.6273 41.1118 43.6624C42.4237 43.6378 43.7076 43.2792 44.8417 42.6207C45.9758 41.9621 46.9225 41.0253 47.5921 39.8993C48.2737 41.0238 49.2288 41.9583 50.3689 42.6162C51.509 43.274 52.7971 43.6339 54.1138 43.6624C54.2843 43.6533 54.4449 43.5794 54.5624 43.4557C54.6799 43.332 54.7454 43.1681 54.7454 42.9977C54.7454 42.8273 54.6799 42.6633 54.5624 42.5397C54.4449 42.416 54.2843 42.3421 54.1138 42.333C52.8501 42.262 51.6302 41.8462 50.587 41.1311C49.5437 40.416 48.7171 39.4289 48.1971 38.2774C48.1797 38.2475 48.1596 38.2192 48.137 38.193C48.1138 38.1513 48.0861 38.1124 48.0543 38.0768C48.0175 38.0443 47.9772 38.016 47.9341 37.9924C47.904 37.9755 47.8815 37.9493 47.8495 37.9343H47.8364C47.8061 37.9256 47.7754 37.9187 47.7443 37.9136C47.6064 37.8753 47.4597 37.8839 47.3272 37.938H47.3178C47.2934 37.9493 47.2783 37.9699 47.2539 37.983C47.2038 38.0105 47.1571 38.0439 47.1149 38.0824C47.0841 38.1173 47.0577 38.1557 47.036 38.1968C47.0132 38.2242 46.993 38.2537 46.9758 38.2849C46.4607 39.4287 45.6421 40.4103 44.6087 41.1238C43.5752 41.8372 42.366 42.2553 41.1118 42.333C39.8481 42.262 38.6282 41.8462 37.5849 41.1311C36.5417 40.416 35.715 39.4289 35.1951 38.2774C35.1089 38.1618 34.9968 38.0679 34.8678 38.0032C34.7388 37.9386 34.5964 37.9049 34.452 37.9049C34.3076 37.9049 34.1652 37.9386 34.0362 38.0032C33.9072 38.0679 33.7951 38.1618 33.7089 38.2774C33.1944 39.4213 32.3763 40.4031 31.343 41.1166C30.3098 41.8301 29.1008 42.2481 27.8467 42.3255C26.5828 42.2546 25.3625 41.8389 24.3189 41.1238C23.2754 40.4087 22.4484 39.4216 21.9281 38.2699C21.9114 38.2396 21.8912 38.2113 21.868 38.1855C21.8456 38.1428 21.8179 38.1031 21.7853 38.0674C21.748 38.0361 21.7078 38.0084 21.6651 37.9849C21.6381 37.9638 21.6099 37.9444 21.5805 37.9268H21.5693C21.5367 37.9172 21.5034 37.9103 21.4697 37.9061C21.3328 37.8684 21.1873 37.8776 21.0563 37.9324C21.0375 37.9324 21.0263 37.9568 21.0093 37.9661C20.9512 37.9945 20.898 38.0318 20.8515 38.0768C20.8227 38.1098 20.798 38.1464 20.7782 38.1855C20.7526 38.214 20.7305 38.2454 20.7125 38.2793C20.1983 39.425 19.3797 40.4085 18.3453 41.1231C17.311 41.8377 16.1003 42.2561 14.8447 42.333C13.5808 42.2619 12.3607 41.8462 11.3171 41.1311C10.2735 40.416 9.44654 39.4289 8.9261 38.2774C8.8615 38.1353 8.74829 38.0208 8.60677 37.9545C8.46525 37.8882 8.30469 37.8744 8.15387 37.9155C7.99966 37.8713 7.83455 37.8851 7.68982 37.9542C7.54508 38.0233 7.43076 38.1429 7.36849 38.2905C6.85252 39.4333 6.03365 40.4138 5.00023 41.1262C3.96681 41.8386 2.75807 42.2559 1.50443 42.333C1.33389 42.3421 1.17333 42.416 1.05582 42.5397C0.938306 42.6633 0.872803 42.8273 0.872803 42.9977C0.872803 43.1681 0.938306 43.332 1.05582 43.4557C1.17333 43.5794 1.33389 43.6533 1.50443 43.6624Z" fill="#AA8453"/>
<path d="M54.1138 50.0506C52.8501 49.9795 51.6302 49.5638 50.587 48.8487C49.5437 48.1336 48.7171 47.1465 48.1971 45.9949C48.1482 45.929 48.1006 45.8621 48.0543 45.7943C48.0179 45.7641 47.979 45.7371 47.9378 45.7137C47.9099 45.691 47.8804 45.6703 47.8495 45.6518H47.8364C47.8018 45.6423 47.7666 45.6348 47.7312 45.6293C47.6816 45.6145 47.6306 45.6051 47.579 45.6012H47.5639C47.4826 45.6035 47.4023 45.6207 47.3272 45.6518H47.3178C47.2976 45.6651 47.2782 45.6795 47.2595 45.6949C47.2066 45.7215 47.1579 45.7556 47.1149 45.7962C47.0847 45.8304 47.0588 45.8682 47.0378 45.9087C47.014 45.9364 46.9932 45.9666 46.9758 45.9987C46.4607 47.1425 45.6421 48.1241 44.6087 48.8376C43.5752 49.551 42.366 49.9691 41.1118 50.0468C39.8481 49.9758 38.6282 49.56 37.5849 48.8449C36.5417 48.1298 35.715 47.1427 35.1951 45.9912C35.1089 45.8756 34.9968 45.7817 34.8678 45.717C34.7388 45.6524 34.5964 45.6187 34.452 45.6187C34.3076 45.6187 34.1652 45.6524 34.0362 45.717C33.9072 45.7817 33.7951 45.8756 33.7089 45.9912C33.1944 47.1351 32.3763 48.1169 31.343 48.8304C30.3098 49.5439 29.1008 49.9619 27.8467 50.0393C26.5828 49.9684 25.3625 49.5527 24.3189 48.8376C23.2754 48.1225 22.4484 47.1354 21.9281 45.9837C21.9115 45.9543 21.892 45.9267 21.8699 45.9012C21.8463 45.8582 21.8179 45.8179 21.7853 45.7812C21.7497 45.7505 21.7106 45.7241 21.6688 45.7024C21.6414 45.6791 21.6119 45.6584 21.5805 45.6406H21.5693C21.5317 45.6296 21.4934 45.6214 21.4547 45.6162C21.322 45.5843 21.1827 45.5948 21.0563 45.6462C21.0412 45.6558 21.0267 45.6664 21.0131 45.6781C20.9534 45.7081 20.8983 45.7466 20.8496 45.7924C20.8226 45.8241 20.7993 45.8587 20.7801 45.8956C20.7548 45.9261 20.7322 45.9587 20.7125 45.9931C20.1989 47.1395 19.3805 48.1238 18.3461 48.8391C17.3117 49.5543 16.1007 49.9733 14.8447 50.0506C13.5808 49.9794 12.3607 49.5637 11.3171 48.8486C10.2735 48.1335 9.44654 47.1465 8.9261 45.9949C8.86085 45.853 8.74725 45.7387 8.60551 45.6724C8.46377 45.6062 8.30307 45.5922 8.152 45.6331C7.99804 45.5894 7.83338 45.6034 7.68906 45.6725C7.54474 45.7415 7.43072 45.8609 7.36849 46.0081C6.85252 47.1508 6.03365 48.1313 5.00023 48.8437C3.96681 49.5561 2.75807 49.9734 1.50443 50.0506C1.33389 50.0596 1.17333 50.1336 1.05582 50.2572C0.938306 50.3809 0.872803 50.5448 0.872803 50.7152C0.872803 50.8857 0.938306 51.0496 1.05582 51.1733C1.17333 51.2969 1.33389 51.3709 1.50443 51.3799C2.86837 51.3461 4.19972 50.9567 5.36621 50.2505C6.5327 49.5443 7.49375 48.5459 8.15387 47.3543C8.82521 48.5453 9.79453 49.5422 10.9672 50.2478C12.1399 50.9533 13.4758 51.3434 14.8447 51.3799C16.1563 51.3543 17.4398 50.9953 18.5737 50.3368C19.7077 49.6783 20.6546 48.7422 21.325 47.6168C22.0063 48.7416 22.9614 49.6763 24.1016 50.3342C25.2417 50.9921 26.53 51.3518 27.8467 51.3799C29.199 51.3479 30.5197 50.9653 31.6789 50.2697C32.8382 49.574 33.7961 48.5894 34.4586 47.4124C35.1318 48.5891 36.0979 49.5724 37.2634 50.2674C38.429 50.9625 39.7544 51.3456 41.1118 51.3799C42.4237 51.3554 43.7076 50.9968 44.8417 50.3382C45.9758 49.6796 46.9225 48.7429 47.5921 47.6168C48.2737 48.7413 49.2288 49.6759 50.3689 50.3337C51.509 50.9916 52.7971 51.3514 54.1138 51.3799C54.2843 51.3709 54.4449 51.2969 54.5624 51.1733C54.6799 51.0496 54.7454 50.8857 54.7454 50.7152C54.7454 50.5448 54.6799 50.3809 54.5624 50.2572C54.4449 50.1336 54.2843 50.0596 54.1138 50.0506Z" fill="#AA8453"/>
</svg>
