<svg width="104" height="104" viewBox="0 0 104 104" fill="none" xmlns="http://www.w3.org/2000/svg">
<path d="M90.5125 47.1249C90.1062 47.1249 89.7 47.1249 89.2937 47.0437C87.9937 46.7999 86.6937 46.2312 85.5562 45.2562C76.2937 37.2124 64.35 32.7437 52 32.7437C39.5687 32.7437 27.625 37.2124 18.2812 45.3374C16.9812 46.4749 15.275 47.1249 13.4875 47.1249C11.5375 47.1249 9.6687 46.3937 8.28745 45.0124L4.87495 41.5999C3.41245 40.1374 2.6812 38.1874 2.76245 36.1562C2.8437 34.1249 3.73745 32.2562 5.19995 30.8749C18.1187 19.4999 34.775 13.2437 52 13.2437C69.225 13.2437 85.8812 19.4999 98.7999 30.8749C100.344 32.1749 101.237 34.1249 101.319 36.1562C101.4 38.1874 100.587 40.1374 99.2062 41.5999L95.7937 45.0124C94.25 46.3937 92.4625 47.1249 90.5125 47.1249ZM52 16.4937C35.5875 16.4937 19.6625 22.4249 7.3937 33.3124C6.5812 34.0437 6.01245 35.0999 6.01245 36.2374C6.01245 37.3749 6.4187 38.4312 7.2312 39.2437L10.6437 42.6562C11.375 43.3874 12.4312 43.8749 13.4875 43.8749C14.4625 43.8749 15.3562 43.5499 16.0875 42.8999C26.0812 34.2874 38.7562 29.4937 52 29.4937C65.1625 29.4937 77.8375 34.2062 87.75 42.7374C88.4 43.3062 89.1312 43.7124 89.8624 43.7937C91.1625 44.0374 92.4625 43.6312 93.4375 42.6562L96.85 39.2437C97.6625 38.4312 98.0687 37.3749 98.0687 36.2374C98.0687 35.0999 97.5 34.0437 96.6875 33.3124C84.3375 22.5062 68.4125 16.4937 52 16.4937Z" fill="#AA8453" fill-opacity="0.1"/>
<path d="M51.9999 89.7812C51.8374 89.7812 51.7562 89.7812 51.5937 89.7812C45.9874 89.5375 41.4374 84.9875 41.1937 79.3812C41.1124 76.5375 42.0874 73.775 44.0374 71.7438C46.0687 69.55 48.9937 68.25 51.9999 68.25C55.0062 68.25 57.9312 69.55 59.9624 71.7438C61.8312 73.775 62.8062 76.2938 62.8062 79.0563C62.8062 81.9813 61.6687 84.7438 59.4749 86.8563C57.4437 88.6438 54.8437 89.7812 51.9999 89.7812ZM51.9999 71.4188C49.8874 71.4188 47.8562 72.3125 46.4749 73.8563C45.0937 75.3188 44.4437 77.2688 44.5249 79.2188C44.6874 83.1188 47.9374 86.3687 51.7562 86.5312C53.8687 86.6125 55.8187 85.8813 57.2812 84.4188C58.7437 82.9563 59.5562 81.0875 59.5562 78.975C59.5562 77.1062 58.8249 75.2375 57.6062 73.8563C56.1437 72.3125 54.1124 71.4188 51.9999 71.4188Z" fill="#AA8453" fill-opacity="0.1"/>
<path d="M70.2001 65.8125C69.8751 65.8125 69.5501 65.8125 69.1439 65.7313C67.9251 65.5688 66.7064 65.0812 65.5689 64.1875C61.6689 61.2625 56.9564 59.7188 52.0001 59.7188C47.0439 59.7188 42.3314 61.2625 38.4314 64.1875C37.2939 65.0812 36.0751 65.5688 34.8564 65.7313C32.5814 66.0563 30.3064 65.325 28.6814 63.7L25.3501 60.3688C24.6189 59.6375 24.0501 58.825 23.6439 57.9313C22.3439 54.8438 23.2376 51.4312 25.8376 49.4C33.3126 43.3875 42.3314 40.2188 52.0001 40.2188C61.6689 40.2188 70.6876 43.3875 78.2439 49.3188C80.8439 51.35 81.6564 54.7625 80.4376 57.85C80.1126 58.7437 79.5439 59.5562 78.7314 60.2875L75.4001 63.6188C74.0189 65.0813 72.1501 65.8125 70.2001 65.8125ZM69.6314 62.4813C70.9314 62.6438 72.1501 62.2375 73.0439 61.3438L76.3751 58.0125C76.7814 57.6063 77.1064 57.1187 77.3501 56.6312C78.0814 54.925 77.5939 52.975 76.1314 51.8375C69.3064 46.3937 60.9376 43.4688 52.0001 43.4688C43.0626 43.4688 34.6939 46.3937 27.7876 51.8375C26.3251 52.975 25.9189 54.8437 26.5689 56.6312C26.7314 57.1187 27.0564 57.525 27.5439 58.0125L30.8751 61.3438C31.7689 62.2375 33.0689 62.6438 34.2876 62.4813C34.9376 62.4 35.6689 62.075 36.4001 61.5062C40.8689 58.175 46.3126 56.3875 51.9189 56.3875C57.6064 56.3875 62.9689 58.175 67.4376 61.5062C68.2501 62.075 68.9814 62.4 69.6314 62.4813Z" fill="#AA8453" fill-opacity="0.1"/>
</svg>
