<svg width="83" height="83" viewBox="0 0 83 83" fill="none" xmlns="http://www.w3.org/2000/svg">
<g clip-path="url(#clip0_2051_39)">
<path d="M41.5 18.4805C28.807 18.4805 18.4805 28.807 18.4805 41.5C18.4805 54.193 28.807 64.5195 41.5 64.5195C54.193 64.5195 64.5195 54.193 64.5195 41.5C64.5195 28.807 54.193 18.4805 41.5 18.4805ZM41.5 61.2773C30.5947 61.2773 21.7227 52.4053 21.7227 41.5C21.7227 30.5947 30.5947 21.7227 41.5 21.7227C52.4053 21.7227 61.2773 30.5947 61.2773 41.5C61.2773 52.4053 52.4053 61.2773 41.5 61.2773Z" fill="#AA8453" fill-opacity="0.1"/>
<path d="M82.1394 0.189344C81.6098 -0.0917537 80.9681 -0.0578729 80.4713 0.277694C72.513 5.65502 67.7617 14.5996 67.7617 24.2044V45.2384C67.7617 47.4945 68.6404 49.6155 70.2355 51.2108L73.2734 54.2488V78.1367C73.2734 80.8183 75.4551 83 78.1367 83C80.8183 83 83 80.8183 83 78.1367V1.62109C83 1.02145 82.669 0.470766 82.1394 0.189344ZM79.7578 78.1367C79.7578 79.0306 79.0306 79.7578 78.1367 79.7578C77.2428 79.7578 76.5156 79.0306 76.5156 78.1367V53.5771C76.5156 53.1472 76.3448 52.735 76.0408 52.4309L72.5281 48.9181C71.5452 47.9353 71.0039 46.6285 71.0039 45.2384V24.2044C71.0039 16.7506 74.2268 9.74521 79.7578 4.91143V78.1367Z" fill="#AA8453" fill-opacity="0.1"/>
<path d="M37.7809 28.6437C37.4295 27.8203 36.4766 27.4379 35.6534 27.7892C30.1526 30.1375 26.5981 35.5194 26.5981 41.5001C26.5981 42.3952 27.3239 43.1212 28.2192 43.1212C29.1146 43.1212 29.8403 42.3952 29.8403 41.5001C29.8403 36.8201 32.6218 32.6087 36.9265 30.7712C37.7498 30.4197 38.1324 29.4672 37.7809 28.6437Z" fill="#AA8453" fill-opacity="0.1"/>
<path d="M41.5002 26.5981L41.4184 26.5983C40.523 26.6043 39.8021 27.3349 39.8081 28.2303C39.8141 29.1219 40.5388 29.8405 41.4291 29.8405C41.4326 29.8405 41.4365 29.8405 41.4401 29.8405L41.5002 29.8403C42.3956 29.8403 43.1213 29.1146 43.1213 28.2192C43.1213 27.3239 42.3956 26.5981 41.5002 26.5981Z" fill="#AA8453" fill-opacity="0.1"/>
<path d="M63.972 20.1792C61.1078 17.1614 57.7318 14.7868 53.9376 13.1216C50.0087 11.3974 45.824 10.5232 41.4999 10.5232C36.5588 10.5232 31.8356 11.6524 27.4616 13.8798C26.6638 14.2861 26.3462 15.2621 26.7525 16.06C27.1589 16.8576 28.135 17.175 28.9329 16.7689C32.8468 14.776 37.075 13.7654 41.4999 13.7654C49.1832 13.7654 56.3289 16.8357 61.6203 22.4112C61.939 22.747 62.3673 22.9163 62.7964 22.9163C63.1971 22.9163 63.5985 22.7686 63.912 22.471C64.5614 21.8546 64.5882 20.8286 63.972 20.1792Z" fill="#AA8453" fill-opacity="0.1"/>
<path d="M65.5458 58.4209C64.8434 57.8658 63.8241 57.985 63.2689 58.6872C57.969 65.3905 50.0346 69.2347 41.5 69.2347C36.1585 69.2347 30.9731 67.7135 26.5044 64.8354C25.7519 64.3505 24.7484 64.5679 24.2637 65.3204C23.779 66.0733 23.9962 67.0764 24.7489 67.5611C29.7422 70.777 35.5347 72.4768 41.5 72.4768C51.032 72.4768 59.8934 68.1836 65.812 60.6979C66.3672 59.9958 66.2483 58.9763 65.5458 58.4209Z" fill="#AA8453" fill-opacity="0.1"/>
<path d="M22.0401 61.265L22.0162 61.2376C22.0076 61.2271 21.999 61.2164 21.9901 61.206C21.4135 60.521 20.3909 60.4334 19.706 61.0099C19.0211 61.5867 18.9332 62.6091 19.51 63.2942L19.5257 63.3128L19.5266 63.3122C19.5437 63.3339 19.5616 63.3556 19.5801 63.377C19.9007 63.7505 20.3543 63.9421 20.8108 63.9421C21.1846 63.9421 21.5602 63.8136 21.866 63.5511C22.5452 62.9678 22.6232 61.9444 22.0401 61.265Z" fill="#AA8453" fill-opacity="0.1"/>
<path d="M20.1016 0C19.2062 0 18.4805 0.725764 18.4805 1.62109V19.1289H15.5612C15.5614 19.1198 15.5625 19.1111 15.5625 19.1018V1.62109C15.5625 0.725764 14.8367 0 13.9414 0C13.0461 0 12.3203 0.725764 12.3203 1.62109V19.1018C12.3203 19.1109 12.3216 19.1198 12.3216 19.1289H9.40105C9.40121 19.1198 9.40234 19.1111 9.40234 19.1018V1.62109C9.40234 0.725764 8.67658 0 7.78125 0C6.88592 0 6.16016 0.725764 6.16016 1.62109V19.1018C6.16016 19.1109 6.16145 19.1198 6.16145 19.1289H3.24219V1.62109C3.24219 0.725764 2.51642 0 1.62109 0C0.725764 0 0 0.725764 0 1.62109V21.3984C0 25.375 2.41284 28.9639 5.99805 30.5153V78.1367C5.99805 80.8183 8.17972 83 10.8613 83C13.5429 83 15.7246 80.8183 15.7246 78.1367V30.5153C19.3098 28.9639 21.7227 25.375 21.7227 21.3984V1.62109C21.7227 0.725764 20.9969 0 20.1016 0ZM13.6535 27.8212C12.96 28.0216 12.4824 28.6566 12.4824 29.3786V78.1367C12.4824 79.0306 11.7552 79.7578 10.8613 79.7578C9.96746 79.7578 9.24023 79.0306 9.24023 78.1367V29.3786C9.24023 28.6566 8.76282 28.0216 8.06916 27.8212C5.54301 27.0912 3.69528 24.9229 3.31546 22.3711H18.407C18.0274 24.9229 16.1796 27.0912 13.6535 27.8212Z" fill="#AA8453" fill-opacity="0.1"/>
</g>
<defs>
<clipPath id="clip0_2051_39">
<rect width="83" height="83" fill="white"/>
</clipPath>
</defs>
</svg>
